<svg width="245" height="37" viewBox="0 0 245 37" fill="none" xmlns="http://www.w3.org/2000/svg">
<path d="M122.998 37C138.498 37 142.998 37 163.498 37C170.998 37 196.069 37 208.998 37C219.998 37 218.998 37 244.998 37V36.5715C244.998 30.4658 244.998 27.413 244.555 24.8642C242.387 12.3844 232.614 2.61136 220.134 0.442871C217.585 0 214.532 0 208.427 0H182.998H68.191C61.247 0 57.775 0 54.483 0.724396C51.31 1.42252 48.2679 2.6149 45.4649 4.2579C42.5579 5.96277 40.0099 8.32159 34.9149 13.0392L23.1269 23.9529C18.1959 28.5183 15.7299 30.8011 12.9169 32.451C10.2049 34.041 7.39703 34.6759 4.18997 35.8705C2.5 36.5 1 37 0 37H13.5004H14.5004C20.0004 37 27.9998 37 29.9988 37C35.9988 37 52.4999 37 54.4827 37C61.5001 37 64.9989 37 74.9989 37H122.998Z" fill="white"/>
</svg>
