<svg width="24" height="24" viewBox="0 0 24 24" fill="none" xmlns="http://www.w3.org/2000/svg">
<path d="M1.99902 12C1.99902 8.229 1.99902 6.343 3.17102 5.172C4.34202 4 6.22802 4 9.99902 4H13.999C17.77 4 19.656 4 20.827 5.172C21.999 6.343 21.999 8.229 21.999 12V14C21.999 17.771 21.999 19.657 20.827 20.828C19.656 22 17.77 22 13.999 22H9.99902C6.22802 22 4.34202 22 3.17102 20.828C1.99902 19.657 1.99902 17.771 1.99902 14V12Z" stroke="white"/>
<path d="M7 4V2.5M17 4V2.5M2.5 9H21.5" stroke="white" stroke-linecap="round"/>
<path d="M17.999 17C17.999 17.2652 17.8937 17.5196 17.7061 17.7071C17.5186 17.8946 17.2642 18 16.999 18C16.7338 18 16.4795 17.8946 16.2919 17.7071C16.1044 17.5196 15.999 17.2652 15.999 17C15.999 16.7348 16.1044 16.4804 16.2919 16.2929C16.4795 16.1054 16.7338 16 16.999 16C17.2642 16 17.5186 16.1054 17.7061 16.2929C17.8937 16.4804 17.999 16.7348 17.999 17ZM17.999 13C17.999 13.2652 17.8937 13.5196 17.7061 13.7071C17.5186 13.8946 17.2642 14 16.999 14C16.7338 14 16.4795 13.8946 16.2919 13.7071C16.1044 13.5196 15.999 13.2652 15.999 13C15.999 12.7348 16.1044 12.4804 16.2919 12.2929C16.4795 12.1054 16.7338 12 16.999 12C17.2642 12 17.5186 12.1054 17.7061 12.2929C17.8937 12.4804 17.999 12.7348 17.999 13ZM12.999 17C12.999 17.2652 12.8937 17.5196 12.7061 17.7071C12.5186 17.8946 12.2642 18 11.999 18C11.7338 18 11.4795 17.8946 11.2919 17.7071C11.1044 17.5196 10.999 17.2652 10.999 17C10.999 16.7348 11.1044 16.4804 11.2919 16.2929C11.4795 16.1054 11.7338 16 11.999 16C12.2642 16 12.5186 16.1054 12.7061 16.2929C12.8937 16.4804 12.999 16.7348 12.999 17ZM12.999 13C12.999 13.2652 12.8937 13.5196 12.7061 13.7071C12.5186 13.8946 12.2642 14 11.999 14C11.7338 14 11.4795 13.8946 11.2919 13.7071C11.1044 13.5196 10.999 13.2652 10.999 13C10.999 12.7348 11.1044 12.4804 11.2919 12.2929C11.4795 12.1054 11.7338 12 11.999 12C12.2642 12 12.5186 12.1054 12.7061 12.2929C12.8937 12.4804 12.999 12.7348 12.999 13ZM7.99902 17C7.99902 17.2652 7.89367 17.5196 7.70613 17.7071C7.51859 17.8946 7.26424 18 6.99902 18C6.73381 18 6.47945 17.8946 6.29192 17.7071C6.10438 17.5196 5.99902 17.2652 5.99902 17C5.99902 16.7348 6.10438 16.4804 6.29192 16.2929C6.47945 16.1054 6.73381 16 6.99902 16C7.26424 16 7.51859 16.1054 7.70613 16.2929C7.89367 16.4804 7.99902 16.7348 7.99902 17ZM7.99902 13C7.99902 13.2652 7.89367 13.5196 7.70613 13.7071C7.51859 13.8946 7.26424 14 6.99902 14C6.73381 14 6.47945 13.8946 6.29192 13.7071C6.10438 13.5196 5.99902 13.2652 5.99902 13C5.99902 12.7348 6.10438 12.4804 6.29192 12.2929C6.47945 12.1054 6.73381 12 6.99902 12C7.26424 12 7.51859 12.1054 7.70613 12.2929C7.89367 12.4804 7.99902 12.7348 7.99902 13Z" fill="white"/>
</svg>
