<svg width="20" height="20" viewBox="0 0 20 20" fill="none" xmlns="http://www.w3.org/2000/svg">
<path fill-rule="evenodd" clip-rule="evenodd" d="M1.04297 5.00008C1.04297 2.81396 2.81518 1.04175 5.0013 1.04175H15.0013C17.1875 1.04175 18.9596 2.81396 18.9596 5.00008V15.0001C18.9596 17.1862 17.1875 18.9584 15.0013 18.9584H5.0013C2.81518 18.9584 1.04297 17.1862 1.04297 15.0001V5.00008ZM5.0013 2.29175C3.50553 2.29175 2.29297 3.50431 2.29297 5.00008V12.0834L4.39424 13.4842C5.71632 14.3657 7.47672 14.1913 8.6003 13.0677L11.4023 10.2657C12.5259 9.14216 14.2863 8.96783 15.6084 9.84925L17.5925 11.172C17.633 11.199 17.6721 11.2276 17.7096 11.2577V5.00008C17.7096 3.50431 16.4971 2.29175 15.0013 2.29175H5.0013ZM7.08464 9.16675C8.23523 9.16675 9.16797 8.23401 9.16797 7.08341C9.16797 5.93282 8.23523 5.00008 7.08464 5.00008C5.93404 5.00008 5.0013 5.93282 5.0013 7.08341C5.0013 8.23401 5.93404 9.16675 7.08464 9.16675Z" fill="white"/>
</svg>
