<svg width="18" height="18" viewBox="0 0 18 18" fill="none" xmlns="http://www.w3.org/2000/svg">
<g clip-path="url(#clip0_247_2248)">
<path d="M14.8834 6.35329V5.88079C14.8845 4.34397 14.2837 2.86781 13.2097 1.76857C12.1357 0.669324 10.6739 0.0344141 9.13742 -0.000145726C8.36577 -0.0132787 7.5994 0.129402 6.88418 0.419357C6.16896 0.709312 5.51958 1.14058 4.97492 1.68735C4.38994 2.26074 3.92463 2.94457 3.60598 3.69918C3.28734 4.4538 3.1217 5.26417 3.11867 6.08329V6.36454C2.86226 6.41075 2.62983 6.54453 2.46108 6.74304C2.29232 6.94154 2.1977 7.19247 2.19336 7.45298V12.0739C2.19485 13.6451 2.81966 15.1515 3.93067 16.2625C5.04168 17.3736 6.5481 17.9984 8.1193 17.9999H9.88273C11.4537 17.9984 12.9598 17.3735 14.0704 16.2624C15.1809 15.1513 15.8051 13.6449 15.8059 12.0739V7.45298C15.8042 7.19093 15.7112 6.93767 15.5428 6.7369C15.3744 6.53613 15.1411 6.40046 14.8834 6.35329ZM8.99961 15.3702C8.35602 15.3702 7.72688 15.1793 7.19175 14.8218C6.65662 14.4642 6.23954 13.956 5.99325 13.3614C5.74696 12.7668 5.68251 12.1125 5.80807 11.4813C5.93363 10.85 6.24355 10.2702 6.69864 9.81514C7.15373 9.36005 7.73355 9.05013 8.36477 8.92457C8.996 8.79901 9.65028 8.86345 10.2449 9.10974C10.8395 9.35604 11.3477 9.77312 11.7053 10.3082C12.0628 10.8434 12.2537 11.4725 12.2537 12.1161C12.2522 12.9787 11.9089 13.8055 11.2989 14.4154C10.689 15.0254 9.86218 15.3687 8.99961 15.3702ZM12.9005 6.33642H5.10148V6.02704C5.10148 3.8586 6.78898 2.04454 8.8843 1.98829C9.4152 1.96653 9.94483 2.05529 10.4396 2.24895C10.9344 2.4426 11.3836 2.73694 11.7587 3.11329C12.1209 3.47505 12.4082 3.90472 12.6042 4.37768C12.8001 4.85064 12.9008 5.3576 12.9005 5.86954V6.33642Z" fill="white"/>
<path d="M9.00001 9.14062C8.41149 9.14062 7.83618 9.31514 7.34684 9.64211C6.8575 9.96907 6.47611 10.4338 6.25089 10.9775C6.02567 11.5213 5.96675 12.1196 6.08156 12.6968C6.19638 13.274 6.47978 13.8042 6.89593 14.2203C7.31207 14.6365 7.84228 14.9199 8.41949 15.0347C8.99671 15.1495 9.59501 15.0906 10.1387 14.8654C10.6825 14.6402 11.1472 14.2588 11.4742 13.7694C11.8011 13.2801 11.9756 12.7048 11.9756 12.1163C11.9756 11.3271 11.6621 10.5702 11.1041 10.0122C10.5461 9.45413 9.78919 9.14062 9.00001 9.14062ZM9.01689 11.9784C9.25606 11.988 9.48319 12.086 9.65436 12.2533C9.82553 12.4206 9.9286 12.6455 9.94364 12.8844C9.95868 13.1233 9.88463 13.3593 9.73579 13.5467C9.58696 13.7342 9.37391 13.8598 9.13782 13.8994V14.2819C9.13782 14.3192 9.12301 14.3549 9.09663 14.3813C9.07026 14.4077 9.03449 14.4225 8.9972 14.4225C8.9599 14.4225 8.92413 14.4077 8.89776 14.3813C8.87139 14.3549 8.85657 14.3192 8.85657 14.2819V13.905C8.62294 13.8749 8.40833 13.7605 8.25299 13.5835C8.09765 13.4064 8.01226 13.1787 8.01282 12.9431C8.01282 12.9066 8.02734 12.8715 8.05319 12.8457C8.07903 12.8198 8.11408 12.8053 8.15063 12.8053C8.18696 12.806 8.2216 12.8208 8.24729 12.8465C8.27298 12.8722 8.28773 12.9068 8.28845 12.9431C8.28845 13.1266 8.36134 13.3026 8.49109 13.4324C8.62084 13.5621 8.79683 13.635 8.98032 13.635H9.00001C9.18105 13.6299 9.35285 13.5539 9.47853 13.4235C9.60421 13.2931 9.67374 13.1186 9.6722 12.9375C9.67378 12.7596 9.60592 12.588 9.48302 12.4594C9.36012 12.3307 9.19189 12.255 9.01407 12.2484C8.76982 12.2497 8.53415 12.1585 8.35436 11.9931C8.17456 11.8278 8.06396 11.6006 8.04473 11.3571C8.02551 11.1136 8.09909 10.8718 8.25072 10.6804C8.40234 10.4889 8.62078 10.3618 8.8622 10.3247V9.94781C8.8622 9.91052 8.87701 9.87475 8.90339 9.84838C8.92976 9.822 8.96553 9.80719 9.00282 9.80719C9.04012 9.80719 9.07589 9.822 9.10226 9.84838C9.12863 9.87475 9.14345 9.91052 9.14345 9.94781V10.3247C9.37757 10.3537 9.59288 10.4676 9.74845 10.645C9.90401 10.8223 9.98898 11.0507 9.9872 11.2866C9.98758 11.3048 9.98428 11.3229 9.97749 11.3398C9.9707 11.3566 9.96056 11.372 9.94769 11.3849C9.93481 11.3977 9.91947 11.4079 9.90257 11.4147C9.88568 11.4215 9.86759 11.4248 9.84939 11.4244C9.81283 11.4244 9.77778 11.4099 9.75194 11.384C9.72609 11.3582 9.71157 11.3231 9.71157 11.2866C9.71134 11.1031 9.63855 10.9272 9.50907 10.7972C9.44541 10.7319 9.36929 10.6801 9.28522 10.6449C9.20115 10.6096 9.11086 10.5916 9.0197 10.5919H9.00001C8.82377 10.6051 8.65917 10.6849 8.53974 10.8152C8.42031 10.9455 8.35502 11.1164 8.35717 11.2931C8.35933 11.4698 8.42875 11.6391 8.55132 11.7664C8.67388 11.8937 8.84037 11.9696 9.01689 11.9784Z" fill="white"/>
</g>
<defs>
<clipPath id="clip0_247_2248">
<rect width="18" height="18" fill="white"/>
</clipPath>
</defs>
</svg>
