<svg width="12" height="12" viewBox="0 0 12 12" fill="none" xmlns="http://www.w3.org/2000/svg">
<g clip-path="url(#clip0_749_3655)">
<path d="M11.5713 6.00002C11.5713 7.47765 10.9843 8.89477 9.93949 9.93961C8.89464 10.9845 7.47753 11.5714 5.9999 11.5714C4.52226 11.5714 3.10515 10.9845 2.0603 9.93961C1.01545 8.89477 0.428467 7.47765 0.428467 6.00002M11.5713 6.00002C11.5713 4.52238 10.9843 3.10527 9.93949 2.06042C8.89464 1.01558 7.47753 0.428589 5.9999 0.428589C4.52226 0.428589 3.10515 1.01558 2.0603 2.06042C1.01545 3.10527 0.428467 4.52238 0.428467 6.00002M11.5713 6.00002H0.428467" stroke="white" stroke-width="0.5" stroke-linecap="round" stroke-linejoin="round"/>
<path d="M8.14265 6.00002C8.03739 8.03744 7.28694 9.9886 5.99979 11.5714C4.71264 9.9886 3.96219 8.03744 3.85693 6.00002C3.96219 3.9626 4.71264 2.01143 5.99979 0.428589C7.28694 2.01143 8.03739 3.9626 8.14265 6.00002Z" stroke="white" stroke-width="0.5" stroke-linecap="round" stroke-linejoin="round"/>
</g>
<defs>
<clipPath id="clip0_749_3655">
<rect width="12" height="12" fill="white"/>
</clipPath>
</defs>
</svg>
