<svg width="20" height="20" viewBox="0 0 20 20" fill="none" xmlns="http://www.w3.org/2000/svg">
<path d="M9.99766 20C4.48496 20 0 15.5129 0 9.99766C0 4.48477 4.48496 0 9.99766 0C11.735 0 13.4471 0.454688 14.9488 1.31563C15.1406 1.42539 15.2068 1.66953 15.0971 1.86133C14.9873 2.05313 14.743 2.11914 14.5512 2.00938C13.1701 1.21836 11.5957 0.8 9.99766 0.8C4.92598 0.8 0.8 4.92617 0.8 9.99766C0.8 15.0719 4.92598 19.2 9.99766 19.2C15.0719 19.2 19.2 15.0719 19.2 9.99766C19.2 8.32852 18.7494 6.69531 17.8973 5.27461C17.7836 5.08516 17.8449 4.83945 18.0344 4.72578C18.2234 4.61172 18.4697 4.67305 18.5832 4.86289C19.5102 6.40781 20 8.18359 20 9.99766C20 15.5129 15.5129 20 9.99766 20Z" fill="#363B4B"/>
<path d="M11.5445 14.1867H6.56113C6.34023 14.1867 6.16113 14.0078 6.16113 13.7867C6.16113 13.5656 6.34023 13.3867 6.56113 13.3867H11.5445C12.368 13.3867 13.0379 12.7167 13.0379 11.8933C13.0379 11.0699 12.368 10.4 11.5445 10.4H8.45449C7.18984 10.4 6.16113 9.37104 6.16113 8.10659C6.16113 6.84214 7.18984 5.81323 8.45449 5.81323H13.4379C13.6588 5.81323 13.8379 5.99214 13.8379 6.21323C13.8379 6.43433 13.6588 6.61323 13.4379 6.61323H8.45449C7.63105 6.61323 6.96113 7.28315 6.96113 8.10659C6.96113 8.93003 7.63105 9.59995 8.45449 9.59995H11.5445C12.8092 9.59995 13.8379 10.6289 13.8379 11.8933C13.8379 13.1578 12.8092 14.1867 11.5445 14.1867Z" fill="white"/>
<path d="M9.9998 6.61323C9.77891 6.61323 9.5998 6.43433 9.5998 6.21323V4.99448C9.5998 4.77339 9.77891 4.59448 9.9998 4.59448C10.2207 4.59448 10.3998 4.77339 10.3998 4.99448V6.21323C10.3998 6.43433 10.2207 6.61323 9.9998 6.61323Z" fill="white"/>
<path d="M9.9998 15.4051C9.77891 15.4051 9.5998 15.2262 9.5998 15.0051V13.7867C9.5998 13.5656 9.77891 13.3867 9.9998 13.3867C10.2207 13.3867 10.3998 13.5656 10.3998 13.7867V15.0051C10.3998 15.2262 10.2207 15.4051 9.9998 15.4051Z" fill="white"/>
</svg>
