<svg width="16" height="16" viewBox="0 0 16 16" fill="none" xmlns="http://www.w3.org/2000/svg">
<path fill-rule="evenodd" clip-rule="evenodd" d="M8 14.6666C11.2241 14.6666 13.8378 12.0774 13.8378 8.88348C13.8378 5.68956 11.2241 3.10038 8 3.10038C4.77589 3.10038 2.16223 5.68956 2.16223 8.88348C2.16223 12.0774 4.77589 14.6666 8 14.6666ZM8 5.83129C8.26868 5.83129 8.48648 6.04705 8.48648 6.31321V8.68386L9.9656 10.1491C10.1556 10.3373 10.1556 10.6425 9.9656 10.8307C9.77562 11.0189 9.46759 11.0189 9.27761 10.8307L7.65601 9.22425C7.56477 9.13388 7.51352 9.0113 7.51352 8.88348V6.31321C7.51352 6.04705 7.73132 5.83129 8 5.83129Z" fill="white"/>
<path fill-rule="evenodd" clip-rule="evenodd" d="M5.49366 1.55982C5.63606 1.78553 5.5668 2.08285 5.33896 2.22391L2.74438 3.83033C2.51654 3.9714 2.21641 3.90278 2.07401 3.67708C1.93161 3.45138 2.00088 3.15405 2.22871 3.01299L4.82329 1.40657C5.05113 1.26551 5.35127 1.33412 5.49366 1.55982Z" fill="white"/>
<path fill-rule="evenodd" clip-rule="evenodd" d="M10.5064 1.55982C10.6488 1.33412 10.9489 1.26551 11.1767 1.40657L13.7713 3.01299C13.9991 3.15405 14.0684 3.45138 13.926 3.67708C13.7836 3.90278 13.4835 3.9714 13.2556 3.83033L10.6611 2.22391C10.4332 2.08285 10.364 1.78553 10.5064 1.55982Z" fill="white"/>
</svg>
