<svg width="50" height="50" viewBox="0 0 50 50" fill="none" xmlns="http://www.w3.org/2000/svg">
<rect width="50" height="50" rx="25" fill="white" fill-opacity="0.12"/>
<path d="M12.72 38.34L11.595 35.425C11.5617 35.3383 11.5267 35.2383 11.49 35.125C11.4533 35.0083 11.4183 34.885 11.385 34.755C11.315 35.025 11.2433 35.25 11.17 35.43L10.045 38.34H12.72ZM14.74 41H13.99C13.9033 41 13.8333 40.9783 13.78 40.935C13.7267 40.8917 13.6867 40.8367 13.66 40.77L12.99 39.04H9.775L9.105 40.77C9.085 40.83 9.04667 40.8833 8.99 40.93C8.93333 40.9767 8.86333 41 8.78 41H8.03L10.895 33.835H11.875L14.74 41ZM19.6122 35.935L17.5472 41H16.7472L14.6822 35.935H15.4072C15.4805 35.935 15.5405 35.9533 15.5872 35.99C15.6339 36.0267 15.6655 36.07 15.6822 36.12L16.9672 39.38C17.0072 39.5033 17.0422 39.6233 17.0722 39.74C17.1022 39.8567 17.1305 39.9733 17.1572 40.09C17.1839 39.9733 17.2122 39.8567 17.2422 39.74C17.2722 39.6233 17.3089 39.5033 17.3522 39.38L18.6522 36.12C18.6722 36.0667 18.7055 36.0233 18.7522 35.99C18.7989 35.9533 18.8539 35.935 18.9172 35.935H19.6122ZM23.266 38.72C22.856 38.7333 22.506 38.7667 22.216 38.82C21.9293 38.87 21.6943 38.9367 21.511 39.02C21.331 39.1033 21.1993 39.2017 21.116 39.315C21.036 39.4283 20.996 39.555 20.996 39.695C20.996 39.8283 21.0177 39.9433 21.061 40.04C21.1043 40.1367 21.1627 40.2167 21.236 40.28C21.3127 40.34 21.401 40.385 21.501 40.415C21.6043 40.4417 21.7143 40.455 21.831 40.455C21.9877 40.455 22.131 40.44 22.261 40.41C22.391 40.3767 22.5127 40.33 22.626 40.27C22.7427 40.21 22.8527 40.1383 22.956 40.055C23.0627 39.9717 23.166 39.8767 23.266 39.77V38.72ZM20.391 36.65C20.671 36.38 20.9727 36.1783 21.296 36.045C21.6193 35.9117 21.9777 35.845 22.371 35.845C22.6543 35.845 22.906 35.8917 23.126 35.985C23.346 36.0783 23.531 36.2083 23.681 36.375C23.831 36.5417 23.9443 36.7433 24.021 36.98C24.0977 37.2167 24.136 37.4767 24.136 37.76V41H23.741C23.6543 41 23.5877 40.9867 23.541 40.96C23.4943 40.93 23.4577 40.8733 23.431 40.79L23.331 40.31C23.1977 40.4333 23.0677 40.5433 22.941 40.64C22.8143 40.7333 22.681 40.8133 22.541 40.88C22.401 40.9433 22.251 40.9917 22.091 41.025C21.9343 41.0617 21.7593 41.08 21.566 41.08C21.3693 41.08 21.1843 41.0533 21.011 41C20.8377 40.9433 20.686 40.86 20.556 40.75C20.4293 40.64 20.3277 40.5017 20.251 40.335C20.1777 40.165 20.141 39.965 20.141 39.735C20.141 39.535 20.196 39.3433 20.306 39.16C20.416 38.9733 20.5943 38.8083 20.841 38.665C21.0877 38.5217 21.4093 38.405 21.806 38.315C22.2027 38.2217 22.6893 38.1683 23.266 38.155V37.76C23.266 37.3667 23.181 37.07 23.011 36.87C22.841 36.6667 22.5927 36.565 22.266 36.565C22.046 36.565 21.861 36.5933 21.711 36.65C21.5643 36.7033 21.436 36.765 21.326 36.835C21.2193 36.9017 21.126 36.9633 21.046 37.02C20.9693 37.0733 20.8927 37.1 20.816 37.1C20.756 37.1 20.7043 37.085 20.661 37.055C20.6177 37.0217 20.581 36.9817 20.551 36.935L20.391 36.65ZM27.1784 41.08C26.7784 41.08 26.47 40.9683 26.2534 40.745C26.04 40.5217 25.9334 40.2 25.9334 39.78V36.68H25.3234C25.27 36.68 25.225 36.665 25.1884 36.635C25.1517 36.6017 25.1334 36.5517 25.1334 36.485V36.13L25.9634 36.025L26.1684 34.46C26.1784 34.41 26.2 34.37 26.2334 34.34C26.27 34.3067 26.3167 34.29 26.3734 34.29H26.8234V36.035H28.2884V36.68H26.8234V39.72C26.8234 39.9333 26.875 40.0917 26.9784 40.195C27.0817 40.2983 27.215 40.35 27.3784 40.35C27.4717 40.35 27.5517 40.3383 27.6184 40.315C27.6884 40.2883 27.7484 40.26 27.7984 40.23C27.8484 40.2 27.89 40.1733 27.9234 40.15C27.96 40.1233 27.9917 40.11 28.0184 40.11C28.065 40.11 28.1067 40.1383 28.1434 40.195L28.4034 40.62C28.25 40.7633 28.065 40.8767 27.8484 40.96C27.6317 41.04 27.4084 41.08 27.1784 41.08ZM32.1523 38.72C31.7423 38.7333 31.3923 38.7667 31.1023 38.82C30.8157 38.87 30.5807 38.9367 30.3973 39.02C30.2173 39.1033 30.0857 39.2017 30.0023 39.315C29.9223 39.4283 29.8823 39.555 29.8823 39.695C29.8823 39.8283 29.904 39.9433 29.9473 40.04C29.9907 40.1367 30.049 40.2167 30.1223 40.28C30.199 40.34 30.2873 40.385 30.3873 40.415C30.4907 40.4417 30.6007 40.455 30.7173 40.455C30.874 40.455 31.0173 40.44 31.1473 40.41C31.2773 40.3767 31.399 40.33 31.5123 40.27C31.629 40.21 31.739 40.1383 31.8423 40.055C31.949 39.9717 32.0523 39.8767 32.1523 39.77V38.72ZM29.2773 36.65C29.5573 36.38 29.859 36.1783 30.1823 36.045C30.5057 35.9117 30.864 35.845 31.2573 35.845C31.5407 35.845 31.7923 35.8917 32.0123 35.985C32.2323 36.0783 32.4173 36.2083 32.5673 36.375C32.7173 36.5417 32.8307 36.7433 32.9073 36.98C32.984 37.2167 33.0223 37.4767 33.0223 37.76V41H32.6273C32.5407 41 32.474 40.9867 32.4273 40.96C32.3807 40.93 32.344 40.8733 32.3173 40.79L32.2173 40.31C32.084 40.4333 31.954 40.5433 31.8273 40.64C31.7007 40.7333 31.5673 40.8133 31.4273 40.88C31.2873 40.9433 31.1373 40.9917 30.9773 41.025C30.8207 41.0617 30.6457 41.08 30.4523 41.08C30.2557 41.08 30.0707 41.0533 29.8973 41C29.724 40.9433 29.5723 40.86 29.4423 40.75C29.3157 40.64 29.214 40.5017 29.1373 40.335C29.064 40.165 29.0273 39.965 29.0273 39.735C29.0273 39.535 29.0823 39.3433 29.1923 39.16C29.3023 38.9733 29.4807 38.8083 29.7273 38.665C29.974 38.5217 30.2957 38.405 30.6923 38.315C31.089 38.2217 31.5757 38.1683 32.1523 38.155V37.76C32.1523 37.3667 32.0673 37.07 31.8973 36.87C31.7273 36.6667 31.479 36.565 31.1523 36.565C30.9323 36.565 30.7473 36.5933 30.5973 36.65C30.4507 36.7033 30.3223 36.765 30.2123 36.835C30.1057 36.9017 30.0123 36.9633 29.9323 37.02C29.8557 37.0733 29.779 37.1 29.7023 37.1C29.6423 37.1 29.5907 37.085 29.5473 37.055C29.504 37.0217 29.4673 36.9817 29.4373 36.935L29.2773 36.65ZM35.423 36.95C35.583 36.6033 35.7797 36.3333 36.013 36.14C36.2464 35.9433 36.5314 35.845 36.868 35.845C36.9747 35.845 37.0764 35.8567 37.173 35.88C37.273 35.9033 37.3614 35.94 37.438 35.99L37.373 36.655C37.353 36.7383 37.303 36.78 37.223 36.78C37.1764 36.78 37.108 36.77 37.018 36.75C36.928 36.73 36.8264 36.72 36.713 36.72C36.553 36.72 36.4097 36.7433 36.283 36.79C36.1597 36.8367 36.048 36.9067 35.948 37C35.8514 37.09 35.763 37.2033 35.683 37.34C35.6064 37.4733 35.5364 37.6267 35.473 37.8V41H34.578V35.935H35.088C35.1847 35.935 35.2514 35.9533 35.288 35.99C35.3247 36.0267 35.3497 36.09 35.363 36.18L35.423 36.95ZM41.3413 36.77C41.3013 36.8433 41.2397 36.88 41.1563 36.88C41.1063 36.88 41.0497 36.8617 40.9863 36.825C40.923 36.7883 40.8447 36.7483 40.7513 36.705C40.6613 36.6583 40.553 36.6167 40.4263 36.58C40.2997 36.54 40.1497 36.52 39.9763 36.52C39.8263 36.52 39.6913 36.54 39.5713 36.58C39.4513 36.6167 39.348 36.6683 39.2613 36.735C39.178 36.8017 39.113 36.88 39.0663 36.97C39.023 37.0567 39.0013 37.1517 39.0013 37.255C39.0013 37.385 39.038 37.4933 39.1113 37.58C39.188 37.6667 39.288 37.7417 39.4113 37.805C39.5347 37.8683 39.6747 37.925 39.8313 37.975C39.988 38.0217 40.148 38.0733 40.3113 38.13C40.478 38.1833 40.6397 38.2433 40.7963 38.31C40.953 38.3767 41.093 38.46 41.2163 38.56C41.3397 38.66 41.438 38.7833 41.5113 38.93C41.588 39.0733 41.6263 39.2467 41.6263 39.45C41.6263 39.6833 41.5847 39.9 41.5013 40.1C41.418 40.2967 41.2947 40.4683 41.1313 40.615C40.968 40.7583 40.768 40.8717 40.5313 40.955C40.2947 41.0383 40.0213 41.08 39.7113 41.08C39.358 41.08 39.038 41.0233 38.7513 40.91C38.4647 40.7933 38.2213 40.645 38.0213 40.465L38.2313 40.125C38.258 40.0817 38.2897 40.0483 38.3263 40.025C38.363 40.0017 38.4097 39.99 38.4663 39.99C38.5263 39.99 38.5897 40.0133 38.6563 40.06C38.723 40.1067 38.803 40.1583 38.8963 40.215C38.993 40.2717 39.1097 40.3233 39.2463 40.37C39.383 40.4167 39.553 40.44 39.7563 40.44C39.9297 40.44 40.0813 40.4183 40.2113 40.375C40.3413 40.3283 40.4497 40.2667 40.5363 40.19C40.623 40.1133 40.6863 40.025 40.7263 39.925C40.7697 39.825 40.7913 39.7183 40.7913 39.605C40.7913 39.465 40.753 39.35 40.6763 39.26C40.603 39.1667 40.5047 39.0883 40.3813 39.025C40.258 38.9583 40.1163 38.9017 39.9563 38.855C39.7997 38.805 39.638 38.7533 39.4713 38.7C39.308 38.6467 39.1463 38.5867 38.9863 38.52C38.8297 38.45 38.6897 38.3633 38.5663 38.26C38.443 38.1567 38.343 38.03 38.2663 37.88C38.193 37.7267 38.1563 37.5417 38.1563 37.325C38.1563 37.1317 38.1963 36.9467 38.2763 36.77C38.3563 36.59 38.473 36.4333 38.6263 36.3C38.7797 36.1633 38.968 36.055 39.1913 35.975C39.4147 35.895 39.6697 35.855 39.9563 35.855C40.2897 35.855 40.588 35.9083 40.8513 36.015C41.118 36.1183 41.348 36.2617 41.5413 36.445L41.3413 36.77Z" fill="white"/>
<g clip-path="url(#clip0_1387_15404)">
<path d="M18.543 28.0693L19.7166 30L20.8903 30L22.064 28.0693L20.3035 26.2207L18.543 28.0693ZM27.9324 28.0693L29.1061 30L30.2798 30L31.4534 28.0693L29.6929 26.2207L27.9324 28.0693ZM29.1061 24.9391L29.0004 23.793C29.0239 23.7683 29.0474 23.7437 29.0708 23.719C29.8572 22.9057 30.2798 21.8212 30.2798 20.6751L30.2798 18.6171L31.4534 16.978L28.93 12.8496L21.0664 12.8496L18.543 16.978L19.7166 18.6171L19.7166 20.6751C19.7166 21.8951 20.2096 23.0042 20.996 23.793L20.8903 24.9391L22.064 25.6045L24.9982 28.6854L27.9324 25.6045L29.1061 24.9391Z" fill="url(#paint0_linear_1387_15404)"/>
<path d="M19.7185 18.6171L19.7185 16.978C19.7185 15.9551 20.5048 15.1294 21.479 15.1294L22.1715 15.1294C23.0634 15.1294 23.9437 14.7474 24.5893 14.082C24.8123 13.8355 25.1878 13.8355 25.4108 14.082C26.0564 14.7474 26.9366 15.1294 27.8286 15.1294L28.5211 15.1294C29.4953 15.1294 30.2816 15.9551 30.2816 16.978L30.2816 18.6171C31.8895 18.0255 32.8754 16.3002 32.5702 14.4886C32.2886 12.714 30.7745 11.4324 28.9906 11.4324L27.8756 11.4324C27.7582 10.8409 27.4882 10.2986 27.0775 9.87961C25.986 8.70886 24.0025 8.70886 22.9344 9.86728C22.5118 10.2986 22.2419 10.8409 22.1245 11.4324L21.0095 11.4324C19.2256 11.4324 17.7115 12.714 17.4298 14.4886C17.1246 16.3002 18.1105 18.0255 19.7185 18.6171ZM29.0022 23.793C28.3802 24.4214 27.5938 24.8158 26.7605 24.9391L26.7605 25.6045C26.7605 26.6274 25.9742 27.4531 25 27.4531C24.0258 27.4531 23.2395 26.6274 23.2395 25.6045L23.2395 24.9391C22.3827 24.8158 21.5963 24.3968 20.9978 23.793C18.9555 24.0394 17.3711 25.8634 17.3711 28.0692L17.3711 29.3838C17.3711 29.7289 17.6293 29.9999 17.9579 29.9999L19.7185 29.9999L19.7185 28.0692C19.7185 27.7241 19.9766 27.4531 20.3053 27.4531C20.634 27.4531 20.8921 27.7241 20.8921 28.0692L20.8921 29.9999L29.1079 29.9999L29.1079 28.0692C29.1079 27.7241 29.3661 27.4531 29.6947 27.4531C30.0234 27.4531 30.2816 27.7241 30.2816 28.0692L30.2816 29.9999L32.0421 29.9999C32.3708 29.9999 32.6289 29.7289 32.6289 29.3838L32.6289 28.0692C32.6289 25.8634 31.0445 24.0394 29.0022 23.793ZM28.521 17.5942L27.3474 17.5942C26.8948 17.5942 26.4859 17.7793 26.1737 18.0749C25.8615 17.7793 25.4525 17.5942 25 17.5942C24.5475 17.5942 24.1385 17.7793 23.8263 18.0749C23.5141 17.7793 23.1052 17.5942 22.6526 17.5942L21.479 17.5942C20.5082 17.5942 19.7185 18.4234 19.7185 19.4427C19.7185 20.462 20.5082 21.2912 21.479 21.2912L22.6526 21.2912C23.6234 21.2912 24.4132 20.462 24.4132 19.4427C24.4132 19.1027 24.6762 18.8265 25 18.8265C25.3238 18.8265 25.5868 19.1027 25.5868 19.4427C25.5868 20.462 26.3766 21.2912 27.3474 21.2912L28.521 21.2912C29.4918 21.2912 30.2816 20.462 30.2816 19.4427C30.2816 18.4234 29.4918 17.5942 28.521 17.5942Z" fill="url(#paint1_linear_1387_15404)"/>
</g>
<defs>
<linearGradient id="paint0_linear_1387_15404" x1="24.9982" y1="30" x2="24.9982" y2="12.8496" gradientUnits="userSpaceOnUse">
<stop stop-color="#FFBEF9"/>
<stop offset="1" stop-color="#FFF1FF"/>
</linearGradient>
<linearGradient id="paint1_linear_1387_15404" x1="25" y1="29.9999" x2="25" y2="8.99994" gradientUnits="userSpaceOnUse">
<stop stop-color="#FA00FF"/>
<stop offset="1" stop-color="#2DB3FF"/>
</linearGradient>
<clipPath id="clip0_1387_15404">
<rect width="20" height="21" fill="white" transform="translate(15 9)"/>
</clipPath>
</defs>
</svg>
