<svg width="40" height="40" viewBox="0 0 40 40" fill="none" xmlns="http://www.w3.org/2000/svg">
<g clip-path="url(#clip0_326_12466)">
<path d="M24.7264 4.27143L24.3947 3.79163L24.7264 4.27143ZM23.6602 5.00869L23.0859 4.90627C23.0297 5.22167 23.2383 5.52341 23.5533 5.58214L23.6602 5.00869ZM25.3626 5.91951C25.6793 5.97856 25.9839 5.76969 26.0429 5.45299C26.102 5.13628 25.8931 4.83166 25.5764 4.77261L25.3626 5.91951ZM24.5576 3.29921C24.6142 2.98205 24.4029 2.67909 24.0858 2.62252C23.7686 2.56596 23.4656 2.77721 23.4091 3.09438L24.5576 3.29921ZM33.8543 12.0832C33.7245 12.3781 33.8583 12.7223 34.1532 12.8521C34.4481 12.9819 34.7923 12.848 34.9221 12.5532L33.8543 12.0832ZM34.2527 5.6265C32.02 2.39756 27.6075 1.57005 24.3947 3.79163L25.0582 4.75123C27.7339 2.90101 31.4219 3.58395 33.2931 6.29004L34.2527 5.6265ZM24.3947 3.79163L23.3284 4.52889L23.992 5.48849L25.0582 4.75123L24.3947 3.79163ZM23.5533 5.58214L25.3626 5.91951L25.5764 4.77261L23.7671 4.43524L23.5533 5.58214ZM24.2345 5.11111L24.5576 3.29921L23.4091 3.09438L23.0859 4.90627L24.2345 5.11111ZM34.9221 12.5532C35.8831 10.3697 35.7162 7.74301 34.2527 5.6265L33.2931 6.29004C34.5182 8.0618 34.6576 10.2579 33.8543 12.0832L34.9221 12.5532Z" fill="white"/>
<path d="M22.4808 21.8861C23.2645 22.5072 24.4502 23.4561 24.1224 24.8307C23.9363 25.5901 23.3146 25.9165 22.5663 26.1018C22.2102 26.19 21.8233 26.2466 21.4401 26.3023C21.0604 26.3571 20.6987 26.4075 20.3714 26.4885C20.0368 26.5714 19.697 26.6947 19.3321 26.8242C18.2047 27.2209 17.0361 27.6357 16.2802 26.7725C15.3453 25.7106 15.9548 24.3172 16.3581 23.4021C16.4447 23.1964 16.5196 23.0211 16.5659 22.8842C17.1987 20.9991 17.619 20.2757 18.7629 19.9925C19.8997 19.711 20.6162 20.1529 22.0483 21.5267C22.153 21.6262 22.3083 21.7446 22.4808 21.8861ZM17.1417 17.9012C17.0793 18.2968 16.8869 18.5992 16.603 18.7479C15.9849 19.0734 15.1189 18.6136 14.6654 17.7226C14.2074 16.8287 14.3395 15.8357 14.9522 15.5194C15.016 15.484 15.0852 15.4551 15.1535 15.4382C15.7471 15.2912 16.4906 15.7499 16.8943 16.5475C17.1238 16.9963 17.2075 17.4733 17.1417 17.9012ZM17.1417 17.9012C17.0793 18.2968 16.8869 18.5992 16.603 18.7479C15.9849 19.0734 15.1189 18.6136 14.6654 17.7226C14.2074 16.8287 14.3395 15.8357 14.9522 15.5194C15.016 15.484 15.0852 15.4551 15.1535 15.4382C15.7471 15.2912 16.4906 15.7499 16.8943 16.5475C17.1238 16.9963 17.2075 17.4733 17.1417 17.9012ZM14.7386 21.2868C14.756 21.357 14.7697 21.4281 14.7799 21.5C14.8292 21.8994 14.7279 22.2458 14.4974 22.4714C13.9997 22.9592 13.0412 22.7732 12.3569 22.0451C11.6736 21.3207 11.5239 20.3308 12.0243 19.8385C12.1382 19.728 12.2865 19.6482 12.4519 19.6072C12.6138 19.5671 12.7956 19.5613 12.983 19.5933C13.4019 19.6659 13.8231 19.9026 14.1612 20.2657C14.4468 20.5712 14.6499 20.9286 14.7386 21.2868ZM17.1417 17.9012C17.0793 18.2968 16.8869 18.5992 16.603 18.7479C15.9849 19.0734 15.1189 18.6136 14.6654 17.7226C14.2074 16.8287 14.3395 15.8357 14.9522 15.5194C15.016 15.484 15.0852 15.4551 15.1535 15.4382C15.7471 15.2912 16.4906 15.7499 16.8943 16.5475C17.1238 16.9963 17.2075 17.4733 17.1417 17.9012ZM21.3277 16.0729C21.3424 17.0727 20.7838 17.8852 20.0924 17.8839C19.3957 17.8918 18.8191 17.0743 18.8045 16.0745C18.7898 15.0748 19.3403 14.2604 20.0389 14.2599C20.732 14.2529 21.3122 15.0695 21.3277 16.0729ZM14.7386 21.2868C14.756 21.357 14.7697 21.4281 14.7799 21.5C14.8292 21.8994 14.7279 22.2458 14.4974 22.4714C13.9997 22.9592 13.0412 22.7732 12.3569 22.0451C11.6736 21.3207 11.5239 20.3308 12.0243 19.8385C12.1382 19.728 12.2865 19.6482 12.4519 19.6072C12.6138 19.5671 12.7956 19.5613 12.983 19.5933C13.4019 19.6659 13.8231 19.9026 14.1612 20.2657C14.4468 20.5712 14.6499 20.9286 14.7386 21.2868ZM17.1417 17.9012C17.0793 18.2968 16.8869 18.5992 16.603 18.7479C15.9849 19.0734 15.1189 18.6136 14.6654 17.7226C14.2074 16.8287 14.3395 15.8357 14.9522 15.5194C15.016 15.484 15.0852 15.4551 15.1535 15.4382C15.7471 15.2912 16.4906 15.7499 16.8943 16.5475C17.1238 16.9963 17.2075 17.4733 17.1417 17.9012ZM21.3277 16.0729C21.3424 17.0727 20.7838 17.8852 20.0924 17.8839C19.3957 17.8918 18.8191 17.0743 18.8045 16.0745C18.7898 15.0748 19.3403 14.2604 20.0389 14.2599C20.732 14.2529 21.3122 15.0695 21.3277 16.0729ZM27.2386 19.3754C27.2341 19.3882 27.2297 19.4011 27.2288 19.4131C26.6434 21.4589 26.533 23.6185 27.0478 25.6976L28.1669 30.2174C28.8896 33.1361 27.1094 36.0881 24.1906 36.8108L21.8026 37.4021C18.8839 38.1248 15.9319 36.3446 15.2092 33.4258L14.0882 28.8986C13.5734 26.8195 12.468 24.961 10.9984 23.4201C10.9929 23.4136 10.9875 23.4071 10.9821 23.4006C9.53582 21.8617 9.40228 19.6725 10.682 18.411C11.0389 18.064 11.488 17.8117 11.9809 17.6896C12.1787 17.6406 12.3857 17.6129 12.59 17.6054C12.4629 17.0765 12.4365 16.5382 12.52 16.0275C12.6782 15.0164 13.2412 14.1911 14.0623 13.7604C14.2582 13.6571 14.464 13.5787 14.6799 13.5252C15.5756 13.3034 16.5181 13.5326 17.3098 14.1087C17.7376 13.2306 18.4607 12.5891 19.3564 12.3673C19.5723 12.3138 19.7909 12.2871 20.0124 12.2871C21.4851 12.2831 22.711 13.4101 23.1114 14.9963C23.2956 14.9076 23.4889 14.8402 23.6903 14.7903C24.1796 14.6691 24.6945 14.6827 25.1722 14.8232C26.068 15.0952 26.7846 15.7996 27.1475 16.7563C27.4503 17.5632 27.4818 18.4921 27.2386 19.3754ZM18.3364 16.7744C18.5769 17.7457 19.28 18.4574 20.1009 18.4579C20.2153 18.457 20.3269 18.4451 20.4276 18.4202C21.2694 18.2117 21.8975 17.2331 21.8795 16.0657C21.8637 14.7526 21.0305 13.6852 20.0313 13.6896C19.024 13.6921 18.2278 14.7632 18.2482 16.079C18.25 16.3177 18.2815 16.5528 18.3364 16.7744ZM14.1668 17.9754C14.6992 19.0154 15.7078 19.5888 16.5496 19.3804C16.6575 19.3536 16.7618 19.3121 16.8633 19.2596C17.3053 19.0247 17.5998 18.5795 17.6929 17.9998C17.7781 17.4496 17.6741 16.8444 17.3884 16.2919C16.7925 15.1186 15.584 14.5399 14.6928 15.0114C13.807 15.4738 13.5718 16.8058 14.1668 17.9754ZM14.2105 23.2558C14.4659 23.1925 14.6995 23.072 14.886 22.8847C15.2448 22.5294 15.4039 22.0157 15.3278 21.4309C15.26 20.8794 14.9887 20.3234 14.5603 19.8729C14.1399 19.4244 13.6077 19.125 13.069 19.0311C12.5024 18.9323 11.9916 19.0744 11.6356 19.4252C10.9173 20.1322 11.0611 21.4841 11.9614 22.437C12.6167 23.1409 13.5054 23.4303 14.2105 23.2558ZM22.8166 21.4384C22.6595 21.3127 22.5213 21.2018 22.4256 21.108C21.0766 19.8233 20.151 19.0608 18.6257 19.4385C17.1005 19.8162 16.6303 20.9242 16.0367 22.6899C15.9958 22.8176 15.9289 22.9792 15.8486 23.1637C15.4434 24.0871 14.6858 25.8072 15.8657 27.1494C16.5718 27.9505 17.4927 27.9381 18.3884 27.7163C18.7805 27.6192 19.1671 27.4843 19.5213 27.3574C19.8719 27.2314 20.2027 27.1182 20.5085 27.0425C20.8143 26.9668 21.1597 26.9126 21.5215 26.8622C22.7603 26.6848 24.3006 26.4601 24.6612 24.9716C25.0749 23.2348 23.6094 22.0652 22.8166 21.4384ZM25.8719 17.2484C25.6628 16.6966 25.2814 16.3129 24.8019 16.1651C24.3162 16.0228 23.8017 16.1345 23.3431 16.4871C22.9104 16.8216 22.583 17.3338 22.4169 17.9275C22.2811 18.4276 22.2705 18.9397 22.3848 19.4014C22.4058 19.4863 22.4323 19.5777 22.465 19.6637C22.6742 20.2155 23.0546 20.5956 23.5341 20.7434C23.7901 20.8211 24.0538 20.8224 24.3164 20.7574C24.5431 20.7013 24.7758 20.5927 24.9903 20.4259C25.4229 20.0915 25.7504 19.5792 25.9192 18.9809C26.0816 18.388 26.0657 17.7688 25.8719 17.2484ZM25.3515 17.444C25.4989 17.8543 25.5161 18.34 25.3829 18.8197C25.2461 19.3004 24.9911 19.7046 24.6546 19.9643C24.3377 20.2113 23.9941 20.2885 23.685 20.1965C23.3759 20.1045 23.1283 19.8444 22.989 19.4674C22.8345 19.0588 22.8244 18.5714 22.9532 18.0888C23.0863 17.609 23.3449 17.204 23.6815 16.9442C23.8395 16.8268 23.9994 16.748 24.1577 16.7088C24.3232 16.6678 24.4915 16.6692 24.651 16.712C24.9611 16.8077 25.2042 17.065 25.3515 17.444ZM18.8045 16.0745C18.7898 15.0748 19.3403 14.2604 20.0389 14.2599C20.732 14.2529 21.3122 15.0695 21.3277 16.0729C21.3424 17.0727 20.7838 17.8852 20.0924 17.8839C19.3957 17.8918 18.8191 17.0743 18.8045 16.0745ZM14.6654 17.7226C14.2074 16.8287 14.3395 15.8357 14.9522 15.5194C15.016 15.484 15.0852 15.4551 15.1535 15.4382C15.7471 15.2912 16.4906 15.7499 16.8943 16.5475C17.1238 16.9963 17.2075 17.4733 17.1417 17.9012C17.0793 18.2968 16.8869 18.5992 16.603 18.7479C15.9849 19.0734 15.1189 18.6136 14.6654 17.7226ZM14.7799 21.5C14.8292 21.8994 14.7279 22.2458 14.4974 22.4714C13.9997 22.9592 13.0412 22.7732 12.3569 22.0451C11.6736 21.3207 11.5239 20.3308 12.0243 19.8385C12.1382 19.728 12.2865 19.6482 12.4519 19.6072C12.6138 19.5671 12.7956 19.5613 12.983 19.5933C13.4019 19.6659 13.8231 19.9026 14.1612 20.2657C14.4468 20.5712 14.6499 20.9286 14.7386 21.2868C14.756 21.357 14.7697 21.4281 14.7799 21.5ZM17.1417 17.9012C17.0793 18.2968 16.8869 18.5992 16.603 18.7479C15.9849 19.0734 15.1189 18.6136 14.6654 17.7226C14.2074 16.8287 14.3395 15.8357 14.9522 15.5194C15.016 15.484 15.0852 15.4551 15.1535 15.4382C15.7471 15.2912 16.4906 15.7499 16.8943 16.5475C17.1238 16.9963 17.2075 17.4733 17.1417 17.9012ZM14.7386 21.2868C14.756 21.357 14.7697 21.4281 14.7799 21.5C14.8292 21.8994 14.7279 22.2458 14.4974 22.4714C13.9997 22.9592 13.0412 22.7732 12.3569 22.0451C11.6736 21.3207 11.5239 20.3308 12.0243 19.8385C12.1382 19.728 12.2865 19.6482 12.4519 19.6072C12.6138 19.5671 12.7956 19.5613 12.983 19.5933C13.4019 19.6659 13.8231 19.9026 14.1612 20.2657C14.4468 20.5712 14.6499 20.9286 14.7386 21.2868ZM17.1417 17.9012C17.0793 18.2968 16.8869 18.5992 16.603 18.7479C15.9849 19.0734 15.1189 18.6136 14.6654 17.7226C14.2074 16.8287 14.3395 15.8357 14.9522 15.5194C15.016 15.484 15.0852 15.4551 15.1535 15.4382C15.7471 15.2912 16.4906 15.7499 16.8943 16.5475C17.1238 16.9963 17.2075 17.4733 17.1417 17.9012ZM14.7386 21.2868C14.756 21.357 14.7697 21.4281 14.7799 21.5C14.8292 21.8994 14.7279 22.2458 14.4974 22.4714C13.9997 22.9592 13.0412 22.7732 12.3569 22.0451C11.6736 21.3207 11.5239 20.3308 12.0243 19.8385C12.1382 19.728 12.2865 19.6482 12.4519 19.6072C12.6138 19.5671 12.7956 19.5613 12.983 19.5933C13.4019 19.6659 13.8231 19.9026 14.1612 20.2657C14.4468 20.5712 14.6499 20.9286 14.7386 21.2868Z" fill="white"/>
</g>
<defs>
<clipPath id="clip0_326_12466">
<rect width="40" height="40" fill="white"/>
</clipPath>
</defs>
</svg>
