<svg width="24" height="24" viewBox="0 0 24 24" fill="none" xmlns="http://www.w3.org/2000/svg">
<path d="M12 15C13.6569 15 15 13.6569 15 12C15 10.3431 13.6569 9 12 9C10.3431 9 9 10.3431 9 12C9 13.6569 10.3431 15 12 15Z" stroke="white" stroke-width="1.5"/>
<path d="M13.7635 2.152C13.3965 2 12.9305 2 11.9985 2C11.0665 2 10.6005 2 10.2335 2.152C9.99068 2.25251 9.77005 2.3999 9.58422 2.58572C9.39839 2.77155 9.25101 2.99218 9.1505 3.235C9.0585 3.458 9.0215 3.719 9.0075 4.098C9.00127 4.37199 8.9255 4.6399 8.78731 4.87657C8.64912 5.11324 8.45304 5.31091 8.2175 5.451C7.97839 5.58504 7.70914 5.6561 7.43503 5.6575C7.16092 5.6589 6.89096 5.59059 6.6505 5.459C6.3145 5.281 6.0715 5.183 5.8305 5.151C5.30482 5.08187 4.7732 5.22431 4.3525 5.547C4.0385 5.79 3.8045 6.193 3.3385 7C2.8725 7.807 2.6385 8.21 2.5875 8.605C2.55313 8.86545 2.57042 9.13012 2.63836 9.38389C2.70631 9.63767 2.82359 9.87556 2.9835 10.084C3.1315 10.276 3.3385 10.437 3.6595 10.639C4.1325 10.936 4.4365 11.442 4.4365 12C4.4365 12.558 4.1325 13.064 3.6595 13.36C3.3385 13.563 3.1305 13.724 2.9835 13.916C2.82359 14.1244 2.70631 14.3623 2.63836 14.6161C2.57042 14.8699 2.55313 15.1345 2.5875 15.395C2.6395 15.789 2.8725 16.193 3.3375 17C3.8045 17.807 4.0375 18.21 4.3525 18.453C4.56093 18.6129 4.79883 18.7302 5.0526 18.7981C5.30637 18.8661 5.57105 18.8834 5.8315 18.849C6.0715 18.817 6.3145 18.719 6.6505 18.541C6.89096 18.4094 7.16092 18.3411 7.43503 18.3425C7.70914 18.3439 7.97839 18.415 8.2175 18.549C8.7005 18.829 8.9875 19.344 9.0075 19.902C9.0215 20.282 9.0575 20.542 9.1505 20.765C9.25101 21.0078 9.39839 21.2284 9.58422 21.4143C9.77005 21.6001 9.99068 21.7475 10.2335 21.848C10.6005 22 11.0665 22 11.9985 22C12.9305 22 13.3965 22 13.7635 21.848C14.0063 21.7475 14.2269 21.6001 14.4128 21.4143C14.5986 21.2284 14.746 21.0078 14.8465 20.765C14.9385 20.542 14.9755 20.282 14.9895 19.902C15.0095 19.344 15.2965 18.828 15.7795 18.549C16.0186 18.415 16.2879 18.3439 16.562 18.3425C16.8361 18.3411 17.106 18.4094 17.3465 18.541C17.6825 18.719 17.9255 18.817 18.1655 18.849C18.4259 18.8834 18.6906 18.8661 18.9444 18.7981C19.1982 18.7302 19.4361 18.6129 19.6445 18.453C19.9595 18.211 20.1925 17.807 20.6585 17C21.1245 16.193 21.3585 15.79 21.4095 15.395C21.4439 15.1345 21.4266 14.8699 21.3586 14.6161C21.2907 14.3623 21.1734 14.1244 21.0135 13.916C20.8655 13.724 20.6585 13.563 20.3375 13.361C20.1032 13.2186 19.909 13.019 19.7731 12.7809C19.6372 12.5428 19.564 12.2741 19.5605 12C19.5605 11.442 19.8645 10.936 20.3375 10.64C20.6585 10.437 20.8665 10.276 21.0135 10.084C21.1734 9.87556 21.2907 9.63767 21.3586 9.38389C21.4266 9.13012 21.4439 8.86545 21.4095 8.605C21.3575 8.211 21.1245 7.807 20.6595 7C20.1925 6.193 19.9595 5.79 19.6445 5.547C19.4361 5.38709 19.1982 5.26981 18.9444 5.20187C18.6906 5.13392 18.4259 5.11664 18.1655 5.151C17.9255 5.183 17.6825 5.281 17.3455 5.459C17.1052 5.59042 16.8354 5.65862 16.5615 5.65722C16.2875 5.65582 16.0185 5.58486 15.7795 5.451C15.5439 5.31091 15.3479 5.11324 15.2097 4.87657C15.0715 4.6399 14.9957 4.37199 14.9895 4.098C14.9755 3.718 14.9395 3.458 14.8465 3.235C14.746 2.99218 14.5986 2.77155 14.4128 2.58572C14.2269 2.3999 14.0063 2.25251 13.7635 2.152Z" stroke="white" stroke-width="1.5"/>
</svg>
