<svg width="22" height="13" viewBox="0 0 22 13" fill="none" xmlns="http://www.w3.org/2000/svg">
<g clip-path="url(#clip0_565_661)">
<path d="M13.2913 1C12.39 1 11.5499 1.36115 11 1.94629C10.4501 1.36115 9.60997 1 8.7087 1C7.40529 1 6.3106 1.80458 6 2.89257L9.83909 4.28229L9.88997 4.29604L10.0377 4.36458C10.394 4.54289 10.7149 4.75315 11 5C11.2749 4.7577 11.5906 4.55199 11.9318 4.37832C11.998 4.34628 12.0591 4.31889 12.1304 4.29604L16 2.89711C15.6894 1.80458 14.5947 1 13.2913 1Z" fill="white"/>
<path d="M20.6984 0.00263292C20.4876 0.0163335 20.3226 0.171571 20.2859 0.377026C20.1073 1.37694 19.438 2.20336 18.4893 2.58689L12.3338 5.05698C12.3154 5.06153 12.3017 5.07072 12.2834 5.0798C11.7288 5.38571 11.3025 5.83317 11 6.43137C10.6975 5.83317 10.2713 5.38571 9.7166 5.0798C9.69837 5.07072 9.68458 5.06153 9.66624 5.05698L3.51074 2.58689C2.56198 2.20336 1.8928 1.37694 1.71405 0.377026C1.67738 0.171571 1.51237 0.0163335 1.30155 0.00263292C1.09987 -0.0201943 0.902787 0.107642 0.834031 0.299408C0.0594379 2.43165 -0.178895 4.48171 0.132774 6.38563C0.412367 8.08875 1.20988 9.66394 2.37864 10.8191C4.487 12.9057 7.38829 13.4992 11 12.5815C12.1 12.86 13.1358 12.997 14.0983 12.997C16.303 12.997 18.1547 12.2711 19.6214 10.8191C20.7901 9.66394 21.5877 8.08875 21.8672 6.38563C22.1789 4.48171 21.9406 2.43165 21.1659 0.299408C21.0972 0.107642 20.9001 -0.0201943 20.6984 0.00263292ZM8.63957 9.82376C8.57085 9.93785 8.46079 10.02 8.32792 10.0428C7.92455 10.1205 7.52579 10.1616 7.14078 10.1616C4.77117 10.1616 2.85073 8.7142 2.08072 6.25782C2.04405 6.13 2.06239 5.98845 2.13572 5.87426C2.20905 5.76018 2.33281 5.68254 2.46573 5.66881C5.60535 5.29899 7.69079 6.57281 8.67626 9.44929C8.71751 9.57257 8.70372 9.70957 8.63957 9.82376ZM19.9192 6.25782C19.1493 8.7142 17.2288 10.1616 14.8592 10.1616C14.4743 10.1616 14.0754 10.1205 13.6721 10.0428C13.5392 10.02 13.4292 9.93785 13.3604 9.82376C13.2963 9.70957 13.2825 9.57257 13.3237 9.44929C14.3093 6.57281 16.3946 5.29899 19.5343 5.66881C19.6672 5.68254 19.7909 5.76018 19.8643 5.87426C19.9376 5.98845 19.9559 6.13 19.9192 6.25782Z" fill="white"/>
</g>
<defs>
<clipPath id="clip0_565_661">
<rect width="22" height="13" fill="white"/>
</clipPath>
</defs>
</svg>
