<svg width="72" height="72" viewBox="0 0 72 72" fill="none" xmlns="http://www.w3.org/2000/svg">
<circle cx="36" cy="36" r="36" fill="url(#paint0_linear_1387_15339)"/>
<g clip-path="url(#clip0_1387_15339)">
<path d="M35.8982 27.0999C28.4676 27.1004 21.0754 28.7586 17.3862 32.4478C15.7275 34.1065 14.8537 36.1376 14.9695 38.5932C15.0468 40.0331 15.5092 41.3445 16.383 42.2183C17.0258 42.8611 17.8875 43.2336 18.9412 43.0542L25.6784 41.9226C26.6937 41.7301 27.4007 41.4345 27.8637 40.9715C28.455 40.3803 28.6349 39.5312 28.648 38.3618L28.6607 36.549C28.6592 36.2894 28.7608 36.0398 28.9431 35.8551C29.1488 35.6494 29.4061 35.5457 29.6118 35.4695C30.8201 35.1091 33.3526 34.9166 35.8855 34.9035C38.4054 34.9035 40.9378 35.096 42.1462 35.4816C42.3922 35.55 42.6174 35.6783 42.8016 35.8551C42.9684 36.0219 43.0852 36.2407 43.0846 36.5232L43.123 38.3607C43.1357 39.5317 43.3161 40.3803 43.9074 40.9715C44.3698 41.4339 45.0768 41.7296 46.1053 41.91L52.7652 43.041C53.832 43.2083 54.7316 42.8485 55.426 42.1541C56.2745 41.3056 56.7758 40.0331 56.7879 38.5543C56.8395 36.1113 55.9147 34.0807 54.2823 32.4484C50.5926 28.7586 43.3029 27.0999 35.8982 27.0999Z" fill="white"/>
</g>
<defs>
<linearGradient id="paint0_linear_1387_15339" x1="-4.5" y1="8.5" x2="67.5" y2="62" gradientUnits="userSpaceOnUse">
<stop stop-color="#DD0CBB"/>
<stop offset="1" stop-color="#CF1313"/>
</linearGradient>
<clipPath id="clip0_1387_15339">
<rect width="48" height="48" fill="white" transform="translate(12 12)"/>
</clipPath>
</defs>
</svg>
