<svg width="24" height="24" viewBox="0 0 24 24" fill="none" xmlns="http://www.w3.org/2000/svg">
<path d="M5.43096 21.9538H18.569C19.4786 21.9527 20.3507 21.5909 20.9939 20.9477C21.6371 20.3045 21.9989 19.4325 22 18.5229V9.44336H2V18.5229C2.00111 19.4325 2.36294 20.3045 3.00613 20.9477C3.64932 21.5909 4.52135 21.9527 5.43096 21.9538ZM8.53222 13.9174H10.2477C10.3855 13.9175 10.5197 13.8739 10.6312 13.7929C10.7426 13.712 10.8256 13.5978 10.8682 13.4668L11.3987 11.835C11.5941 11.2342 12.4448 11.2342 12.6397 11.835L13.1703 13.4668C13.2129 13.5978 13.2959 13.712 13.4073 13.7929C13.5188 13.8739 13.653 13.9175 13.7908 13.9174H15.5063C16.1381 13.9174 16.4008 14.7258 15.8895 15.0973L14.5004 16.107C14.389 16.1879 14.306 16.3021 14.2634 16.4331C14.2209 16.5641 14.221 16.7053 14.2636 16.8362L14.7941 18.468C14.9895 19.0689 14.3017 19.5689 13.79 19.1973L12.4004 18.1881C12.289 18.1072 12.1549 18.0636 12.0172 18.0636C11.8794 18.0636 11.7453 18.1072 11.6339 18.1881L10.2444 19.1973C9.73305 19.5689 9.04519 19.0689 9.24017 18.468L9.77071 16.8362C9.81342 16.7053 9.81351 16.5641 9.77096 16.4331C9.72841 16.302 9.64541 16.1879 9.53389 16.107L8.14477 15.0973C7.63766 14.7258 7.90042 13.9174 8.53222 13.9174Z" fill="white"/>
<path d="M6.60171 7.1841C6.82365 7.1841 7.0365 7.09594 7.19343 6.939C7.35037 6.78207 7.43853 6.56922 7.43853 6.34728V3.83682C7.43853 3.61488 7.35037 3.40203 7.19343 3.2451C7.0365 3.08816 6.82365 3 6.60171 3C6.37977 3 6.16693 3.08816 6.00999 3.2451C5.85306 3.40203 5.76489 3.61488 5.76489 3.83682V6.34728C5.76489 6.56922 5.85306 6.78207 6.00999 6.939C6.16693 7.09594 6.37977 7.1841 6.60171 7.1841Z" fill="white"/>
<path d="M17.3974 7.1841C17.6193 7.1841 17.8322 7.09594 17.9891 6.939C18.146 6.78207 18.2342 6.56922 18.2342 6.34728V3.83682C18.2342 3.61488 18.146 3.40203 17.9891 3.2451C17.8322 3.08816 17.6193 3 17.3974 3C17.1754 3 16.9626 3.08816 16.8056 3.2451C16.6487 3.40203 16.5605 3.61488 16.5605 3.83682V6.34728C16.5605 6.56922 16.6487 6.78207 16.8056 6.939C16.9626 7.09594 17.1754 7.1841 17.3974 7.1841Z" fill="white"/>
<path d="M18.7364 4.51053V6.34735C18.7364 6.70245 18.5953 7.04301 18.3442 7.29411C18.0931 7.5452 17.7526 7.68626 17.3975 7.68626C17.0424 7.68626 16.7018 7.5452 16.4507 7.29411C16.1996 7.04301 16.0586 6.70245 16.0586 6.34735V4.50635H7.94142V6.34735C7.94142 6.70245 7.80036 7.04301 7.54926 7.29411C7.29817 7.5452 6.95761 7.68626 6.60251 7.68626C6.24741 7.68626 5.90685 7.5452 5.65576 7.29411C5.40466 7.04301 5.2636 6.70245 5.2636 6.34735V4.51053C4.38404 4.55451 3.55497 4.93461 2.94762 5.57233C2.34028 6.21004 2.00105 7.05666 2 7.93731V8.94149H22V7.93731C21.999 7.05666 21.6597 6.21004 21.0524 5.57233C20.445 4.93461 19.616 4.55451 18.7364 4.51053Z" fill="white"/>
</svg>
