<svg width="24" height="24" viewBox="0 0 24 24" fill="none" xmlns="http://www.w3.org/2000/svg">
    <path d="M6.96936 6.97034C7.03903 6.9005 7.1218 6.84508 7.21291 6.80727C7.30403 6.76946 7.40171 6.75 7.50036 6.75C7.59901 6.75 7.6967 6.76946 7.78781 6.80727C7.87893 6.84508 7.9617 6.9005 8.03136 6.97034L12.0004 10.9408L15.9694 6.97034C16.0391 6.90061 16.1219 6.84529 16.213 6.80756C16.3041 6.76982 16.4017 6.75039 16.5004 6.75039C16.599 6.75039 16.6966 6.76982 16.7877 6.80756C16.8788 6.84529 16.9616 6.90061 17.0314 6.97034C17.1011 7.04007 17.1564 7.12286 17.1941 7.21396C17.2319 7.30507 17.2513 7.40272 17.2513 7.50134C17.2513 7.59996 17.2319 7.69761 17.1941 7.78872C17.1564 7.87982 17.1011 7.96261 17.0314 8.03234L13.0609 12.0013L17.0314 15.9703C17.1011 16.0401 17.1564 16.1229 17.1941 16.214C17.2319 16.3051 17.2513 16.4027 17.2513 16.5013C17.2513 16.6 17.2319 16.6976 17.1941 16.7887C17.1564 16.8798 17.1011 16.9626 17.0314 17.0323C16.9616 17.1021 16.8788 17.1574 16.7877 17.1951C16.6966 17.2329 16.599 17.2523 16.5004 17.2523C16.4017 17.2523 16.3041 17.2329 16.213 17.1951C16.1219 17.1574 16.0391 17.1021 15.9694 17.0323L12.0004 13.0618L8.03136 17.0323C7.96163 17.1021 7.87885 17.1574 7.78774 17.1951C7.69663 17.2329 7.59898 17.2523 7.50036 17.2523C7.40175 17.2523 7.3041 17.2329 7.21299 17.1951C7.12188 17.1574 7.0391 17.1021 6.96936 17.0323C6.89963 16.9626 6.84432 16.8798 6.80658 16.7887C6.76884 16.6976 6.74942 16.6 6.74942 16.5013C6.74942 16.4027 6.76884 16.3051 6.80658 16.214C6.84432 16.1229 6.89963 16.0401 6.96936 15.9703L10.9399 12.0013L6.96936 8.03234C6.89952 7.96267 6.8441 7.87991 6.80629 7.78879C6.76849 7.69767 6.74902 7.59999 6.74902 7.50134C6.74902 7.40269 6.76849 7.30501 6.80629 7.21389C6.8441 7.12277 6.89952 7.04001 6.96936 6.97034Z" fill="white"/>
    <circle cx="12" cy="12" r="10.5" stroke="white" stroke-opacity="0.24"/>
</svg>
