<svg width="16" height="16" viewBox="0 0 16 16" fill="none" xmlns="http://www.w3.org/2000/svg">
<path d="M6.16699 9.33333C7.27156 9.33333 8.16699 10.2288 8.16699 11.3333C8.16699 12.4379 7.27156 13.3333 6.16699 13.3333C5.06242 13.3333 4.16699 12.4379 4.16699 11.3333C4.16699 10.2288 5.06242 9.33333 6.16699 9.33333Z" fill="white"/>
<path d="M9.50033 2.66667C8.39576 2.66667 7.50033 3.5621 7.50033 4.66667C7.50033 5.77124 8.39576 6.66667 9.50033 6.66667C10.6049 6.66667 11.5003 5.77124 11.5003 4.66667C11.5003 3.5621 10.6049 2.66667 9.50033 2.66667Z" fill="white"/>
<path d="M5.83366 4.13901C6.1098 4.13901 6.33366 4.36287 6.33366 4.63901C6.33366 4.91516 6.1098 5.13901 5.83366 5.13901L1.16699 5.13901C0.890849 5.13901 0.666992 4.91516 0.666992 4.63901C0.666992 4.36287 0.890849 4.13901 1.16699 4.13901H5.83366Z" fill="white"/>
<path d="M9.83366 10.8057C9.55752 10.8057 9.33366 11.0295 9.33366 11.3057C9.33366 11.5818 9.55752 11.8057 9.83366 11.8057H14.5003C14.7765 11.8057 15.0003 11.5818 15.0003 11.3057C15.0003 11.0295 14.7765 10.8057 14.5003 10.8057H9.83366Z" fill="white"/>
<path d="M0.666992 11.3057C0.666992 11.0295 0.89085 10.8057 1.16699 10.8057H2.50033C2.77647 10.8057 3.00033 11.0295 3.00033 11.3057C3.00033 11.5818 2.77647 11.8057 2.50033 11.8057H1.16699C0.89085 11.8057 0.666992 11.5818 0.666992 11.3057Z" fill="white"/>
<path d="M14.5003 4.13901C14.7765 4.13901 15.0003 4.36287 15.0003 4.63901C15.0003 4.91516 14.7765 5.13901 14.5003 5.13901L13.167 5.13901C12.8908 5.13901 12.667 4.91516 12.667 4.63901C12.667 4.36287 12.8908 4.13901 13.167 4.13901H14.5003Z" fill="white"/>
</svg>
