<svg width="46" height="46" viewBox="0 0 46 46" fill="none" xmlns="http://www.w3.org/2000/svg">
    <circle cx="23" cy="23" r="22.5" fill="#14161D" stroke="#363B4B"/>
    <path d="M32.25 22.9999H19.895M15.534 22.9999H13.75M15.534 22.9999C15.534 22.4217 15.7637 21.8672 16.1725 21.4584C16.5813 21.0496 17.1358 20.8199 17.714 20.8199C18.2922 20.8199 18.8467 21.0496 19.2555 21.4584C19.6643 21.8672 19.894 22.4217 19.894 22.9999C19.894 23.5781 19.6643 24.1326 19.2555 24.5414C18.8467 24.9502 18.2922 25.1799 17.714 25.1799C17.1358 25.1799 16.5813 24.9502 16.1725 24.5414C15.7637 24.1326 15.534 23.5781 15.534 22.9999ZM32.25 29.6069H26.502M26.502 29.6069C26.502 30.1852 26.2718 30.7403 25.8628 31.1492C25.4539 31.5582 24.8993 31.7879 24.321 31.7879C23.7428 31.7879 23.1883 31.5572 22.7795 31.1484C22.3707 30.7396 22.141 30.1851 22.141 29.6069M26.502 29.6069C26.502 29.0286 26.2718 28.4745 25.8628 28.0655C25.4539 27.6566 24.8993 27.4269 24.321 27.4269C23.7428 27.4269 23.1883 27.6566 22.7795 28.0654C22.3707 28.4742 22.141 29.0287 22.141 29.6069M22.141 29.6069H13.75M32.25 16.3929H29.145M24.784 16.3929H13.75M24.784 16.3929C24.784 15.8147 25.0137 15.2602 25.4225 14.8514C25.8313 14.4426 26.3858 14.2129 26.964 14.2129C27.2503 14.2129 27.5338 14.2693 27.7983 14.3788C28.0627 14.4884 28.3031 14.649 28.5055 14.8514C28.7079 15.0538 28.8685 15.2942 28.9781 15.5586C29.0876 15.8231 29.144 16.1066 29.144 16.3929C29.144 16.6792 29.0876 16.9627 28.9781 17.2271C28.8685 17.4916 28.7079 17.732 28.5055 17.9344C28.3031 18.1368 28.0627 18.2974 27.7983 18.4069C27.5338 18.5165 27.2503 18.5729 26.964 18.5729C26.3858 18.5729 25.8313 18.3432 25.4225 17.9344C25.0137 17.5256 24.784 16.9711 24.784 16.3929Z" stroke="white" stroke-width="1.5" stroke-miterlimit="10" stroke-linecap="round"/>
</svg>
