<svg width="20" height="20" viewBox="0 0 20 20" fill="none" xmlns="http://www.w3.org/2000/svg">
<path d="M1.80206 7.08307C1.66699 8.00288 1.66699 9.20795 1.66699 10.8333C1.66699 13.976 1.66699 15.5474 2.6433 16.5237C3.61961 17.5 5.19096 17.5 8.33366 17.5H11.667C14.8097 17.5 16.381 17.5 17.3573 16.5237C18.3337 15.5474 18.3337 13.976 18.3337 10.8333C18.3337 9.20805 18.3337 8.00303 18.1986 7.08324C16.3014 8.31643 15.0854 9.10289 13.9587 9.58722V10.0001C13.9587 10.3453 13.6789 10.6251 13.3337 10.6251C12.9931 10.6251 12.7162 10.3526 12.7089 10.0137C10.9336 10.4818 9.06715 10.4817 7.29192 10.0137C7.28466 10.3526 7.00769 10.6251 6.66706 10.6251C6.32189 10.6251 6.04206 10.3453 6.04206 10.0001V9.58716C4.91536 9.1028 3.69933 8.31631 1.80206 7.08307Z" fill="white"/>
<path fill-rule="evenodd" clip-rule="evenodd" d="M8.81813 1.875L8.80112 1.875C8.70652 1.87499 8.6329 1.87498 8.56324 1.87919C7.67955 1.93271 6.90572 2.49046 6.5755 3.31188C6.54932 3.37699 6.50625 3.5063 6.47552 3.59854L6.47229 3.60824C6.38637 3.84151 6.23123 4.04353 6.05163 4.18779C5.86207 4.19392 5.68101 4.20183 5.50795 4.21204C4.13798 4.29287 3.2686 4.51768 2.6433 5.14298C2.43942 5.34686 2.27811 5.5767 2.15049 5.84138C2.19847 5.85775 2.24522 5.88026 2.28967 5.90915C4.03991 7.04681 5.13957 7.7584 6.05329 8.21489C6.10867 7.92638 6.36241 7.70841 6.66706 7.70841C7.01224 7.70841 7.29206 7.98823 7.29206 8.33341V8.715C9.05826 9.24798 10.9425 9.24799 12.7087 8.71504V8.33341C12.7087 7.98823 12.9886 7.70841 13.3337 7.70841C13.6384 7.70841 13.8922 7.92642 13.9475 8.21495C14.8613 7.75846 15.9609 7.04686 17.7113 5.90915C17.7556 5.88031 17.8023 5.85782 17.8502 5.84146C17.7226 5.57675 17.5613 5.34689 17.3573 5.14298C16.732 4.51768 15.8627 4.29287 14.4927 4.21204C14.3284 4.20235 14.1569 4.19473 13.9778 4.18873C13.9665 4.17954 13.9552 4.17005 13.9438 4.16026C13.7432 3.98696 13.5864 3.75842 13.5073 3.54407L13.5047 3.5362C13.4748 3.44647 13.4516 3.37662 13.4255 3.31188C13.0953 2.49046 12.3215 1.93271 11.4378 1.87919C11.3681 1.87498 11.2945 1.87499 11.1999 1.875L8.81813 1.875ZM12.3484 4.01308L12.3446 4.00413L12.3405 3.99405L12.3367 3.9841L12.3337 3.97581L12.3322 3.97164L12.3287 3.96144L12.3255 3.95203L12.3237 3.94681L12.3214 3.93986L12.3196 3.93399L12.3181 3.92925C12.2853 3.8309 12.2752 3.8017 12.2657 3.77813C12.1156 3.40475 11.7639 3.15124 11.3622 3.12691C11.3353 3.12528 11.3024 3.125 11.1829 3.125H8.81813C8.69865 3.125 8.66569 3.12528 8.63881 3.12691C8.23719 3.15123 7.8855 3.40467 7.73536 3.77795L7.73315 3.78377L7.72652 3.80204C7.72099 3.81754 7.71426 3.83691 7.70649 3.85964C7.69272 3.89995 7.67726 3.94621 7.66158 3.99322L7.66006 3.99814L7.6582 4.004L7.65592 4.01095L7.65418 4.01618L7.65098 4.02559L7.64745 4.03579L7.64597 4.03997L7.64294 4.04826L7.63912 4.05823L7.63506 4.06833L7.63158 4.07658L7.63104 4.0778C7.61943 4.10767 7.60714 4.13749 7.59418 4.1672C7.83054 4.16667 8.07685 4.16667 8.33366 4.16667H11.667C11.9266 4.16667 12.1754 4.16667 12.4141 4.16722C12.3904 4.1163 12.3684 4.06487 12.3484 4.01308Z" fill="white"/>
</svg>
