<svg width="32" height="32" viewBox="0 0 32 32" fill="none" xmlns="http://www.w3.org/2000/svg">
<path d="M7.55904 13.2191L11.6419 7.69506C14.281 4.12433 15.6006 2.33896 16.8318 2.71624C18.0629 3.09353 18.0629 5.28328 18.0629 9.66278V10.0757C18.0629 11.6553 18.0629 12.4451 18.5676 12.9405L18.5943 12.9662C19.11 13.4511 19.932 13.4511 21.576 13.4511C24.5345 13.4511 26.0137 13.4511 26.5137 14.3484C26.522 14.3632 26.53 14.3782 26.5378 14.3933C27.0098 15.3044 26.1533 16.4632 24.4403 18.7809L20.3574 24.3048C17.7182 27.8756 16.3986 29.661 15.1675 29.2837C13.9363 28.9064 13.9363 26.7166 13.9364 22.337L13.9364 21.9243C13.9364 20.3447 13.9364 19.5549 13.4317 19.0595L13.405 19.0338C12.8894 18.5489 12.0674 18.5489 10.4233 18.5489C7.46485 18.5489 5.9856 18.5489 5.48567 17.6516C5.47739 17.6367 5.46935 17.6218 5.46153 17.6067C4.9896 16.6955 5.84608 15.5367 7.55904 13.2191Z" fill="white"/>
</svg>
