<svg width="42" height="42" viewBox="0 0 42 42" fill="none" xmlns="http://www.w3.org/2000/svg">
<circle cx="21" cy="21" r="20.5" transform="matrix(-1 0 0 1 42 0)" stroke="#344256"/>
<path d="M24.1373 21.4653C25.4303 20.5038 26.2733 18.9693 26.2733 17.2376C26.2733 14.3306 23.9085 11.9658 21.0015 11.9658C18.0945 11.9658 15.7298 14.3306 15.7298 17.2376C15.7298 18.9693 16.5728 20.5038 17.8658 21.4653C15.561 22.2401 13.8945 24.4166 13.8945 26.9786V27.7136C13.8945 28.5851 14.5133 29.3366 15.366 29.5001C17.2193 29.8548 19.1153 30.0341 21.0023 30.0341C22.8893 30.0341 24.7853 29.8541 26.6393 29.5001C27.4913 29.3366 28.11 28.5851 28.11 27.7136V26.9786C28.1085 24.4166 26.4413 22.2401 24.1373 21.4653ZM17.079 17.2376C17.079 15.0753 18.8385 13.3158 21.0008 13.3158C23.163 13.3158 24.9225 15.0753 24.9225 17.2376C24.9225 19.3998 23.163 21.1593 21.0008 21.1593C18.8385 21.1593 17.079 19.4006 17.079 17.2376ZM26.7578 27.7136C26.7578 27.9386 26.6003 28.1328 26.3835 28.1741C22.8443 28.8506 19.1565 28.8506 15.6188 28.1741C15.4013 28.1321 15.2438 27.9386 15.2438 27.7136V26.9786C15.2438 24.5141 17.2485 22.5093 19.7123 22.5093H22.2893C24.753 22.5093 26.7578 24.5141 26.7578 26.9786V27.7136Z" fill="white"/>
<path d="M29.2954 21.223C30.1819 20.4175 30.7211 19.2572 30.7211 18.022C30.7211 16.24 29.6494 14.6657 27.9911 14.0117C27.6461 13.876 27.2531 14.0447 27.1159 14.392C26.9786 14.7385 27.1489 15.1307 27.4961 15.2672C28.6354 15.7165 29.3704 16.798 29.3704 18.0212C29.3704 19.24 28.6069 20.3515 27.4714 20.7887C27.1834 20.8997 27.0071 21.1915 27.0439 21.4982C27.0799 21.805 27.3199 22.0472 27.6251 22.0877C29.2999 22.309 30.8261 24.046 30.8261 25.7312V26.3087C30.8261 26.419 30.7481 26.5187 30.6416 26.5397C30.5089 26.566 30.3709 26.59 30.2284 26.6147L29.9404 26.665C29.5736 26.7317 29.3306 27.0827 29.3966 27.4495C29.4559 27.7757 29.7401 28.0037 30.0604 28.0037C30.1009 28.0037 30.1406 28 30.1819 27.9925L30.4564 27.9445C30.6109 27.9175 30.7616 27.892 30.9041 27.8635C31.6406 27.7187 32.1761 27.0647 32.1761 26.3087V25.7312C32.1761 23.8705 30.9566 22.0727 29.2954 21.223Z" fill="white"/>
<path d="M12.06 26.667L11.772 26.6168C11.6302 26.592 11.4915 26.5688 11.3565 26.541C11.253 26.5208 11.1742 26.4218 11.1742 26.3108V25.7333C11.1742 24.048 12.6997 22.311 14.3752 22.0898C14.6805 22.0493 14.9212 21.807 14.9565 21.5003C14.9932 21.1935 14.8162 20.9018 14.529 20.7908C13.3927 20.3535 12.63 19.2413 12.63 18.0233C12.63 16.7993 13.365 15.7178 14.5042 15.2693C14.8515 15.132 15.021 14.7398 14.8845 14.3933C14.7472 14.046 14.3535 13.8765 14.0092 14.013C12.351 14.667 11.2792 16.2413 11.2792 18.0233C11.2792 19.2578 11.8192 20.4188 12.705 21.2243C11.0437 22.0733 9.82422 23.871 9.82422 25.7333V26.3108C9.82422 27.0668 10.3597 27.7208 11.094 27.8648C11.238 27.894 11.3895 27.9195 11.544 27.9465L11.8185 27.9945C11.8597 28.002 11.8995 28.0058 11.94 28.0058C12.2602 28.0058 12.5445 27.777 12.6037 27.4515C12.6705 27.0848 12.4267 26.7338 12.06 26.667Z" fill="white"/>
</svg>
