<svg width="20" height="20" viewBox="0 0 20 20" fill="none" xmlns="http://www.w3.org/2000/svg">
<path fill-rule="evenodd" clip-rule="evenodd" d="M9.99967 1.66666C6.31778 1.66666 3.33301 5.00214 3.33301 8.74999C3.33301 12.1755 5.45463 15.301 8.09328 17.5145C8.54096 17.8901 9.04157 18.2311 9.62081 18.3082C9.76786 18.3278 9.91603 18.3359 10.064 18.3326C10.8561 18.3149 11.5266 17.8031 12.0976 17.2537C14.3788 15.0588 16.6663 12.0431 16.6663 8.74999C16.6663 5.00214 13.6816 1.66666 9.99967 1.66666ZM9.99967 9.99999C10.9201 9.99999 11.6663 9.2538 11.6663 8.33332C11.6663 7.41285 10.9201 6.66666 9.99967 6.66666C9.0792 6.66666 8.33301 7.41285 8.33301 8.33332C8.33301 9.2538 9.0792 9.99999 9.99967 9.99999Z" fill="white"/>
</svg>
