<svg width="57" height="56" viewBox="0 0 57 56" fill="none" xmlns="http://www.w3.org/2000/svg">
    <rect x="0.5" width="56" height="56" rx="28" fill="#FF3500"/>
    <path d="M28.5 28C31.7216 28 34.3333 25.3883 34.3333 22.1666C34.3333 18.945 31.7216 16.3333 28.5 16.3333C25.2783 16.3333 22.6666 18.945 22.6666 22.1666C22.6666 25.3883 25.2783 28 28.5 28Z" stroke="white" stroke-width="1.5" stroke-linecap="round" stroke-linejoin="round"/>
    <path d="M18.4784 39.6667C18.4784 35.1517 22.9701 31.5 28.5001 31.5C29.6201 31.5 30.7051 31.6517 31.7201 31.9317" stroke="white" stroke-width="1.5" stroke-linecap="round" stroke-linejoin="round"/>
    <path d="M40.1667 35C40.1667 35.875 39.9217 36.7033 39.4901 37.4033C39.2451 37.8233 38.93 38.1966 38.5684 38.5C37.7517 39.235 36.6784 39.6666 35.5 39.6666C33.7967 39.6666 32.315 38.7566 31.51 37.4033C31.0784 36.7033 30.8334 35.875 30.8334 35C30.8334 33.53 31.51 32.2117 32.5834 31.36C33.3884 30.7183 34.4034 30.3333 35.5 30.3333C38.0784 30.3333 40.1667 32.4216 40.1667 35Z" stroke="white" stroke-width="1.5" stroke-miterlimit="10" stroke-linecap="round" stroke-linejoin="round"/>
    <path d="M33.6801 35L34.835 36.155L37.32 33.8567" stroke="white" stroke-width="1.5" stroke-linecap="round" stroke-linejoin="round"/>
</svg>
