<svg width="32" height="32" viewBox="0 0 32 32" fill="none" xmlns="http://www.w3.org/2000/svg">
<circle cx="16.0002" cy="16" r="16" fill="white" fill-opacity="0.1"/>
<path d="M22.1669 11.8947H19.5002L19.137 11.0687C18.8516 10.42 18.1869 10 17.4449 10H14.491C13.7922 10 13.1642 10.3682 12.8516 10.96L12.3583 11.8947H9.83362C8.82227 11.8947 8.00024 12.6735 8.00024 13.6316V20.2632C8.00024 21.2214 8.82227 22 9.83362 22H22.0002C22.9463 22 24.0002 21.2869 24.0002 20.2632V13.6316C24.0002 12.6735 23.1782 11.8947 22.1669 11.8947ZM16.0002 19.7895C14.1622 19.7895 12.6669 18.3729 12.6669 16.6316C12.6669 14.8903 14.1622 13.4737 16.0002 13.4737C17.8383 13.4737 19.3336 14.8903 19.3336 16.6316C19.3336 18.3729 17.8383 19.7895 16.0002 19.7895ZM21.3329 15.0533C20.9656 15.0533 20.6663 14.7697 20.6663 14.4217C20.6663 14.0737 20.9656 13.7901 21.3329 13.7901C21.7002 13.7901 21.9996 14.0737 21.9996 14.4217C21.9996 14.7697 21.7002 15.0533 21.3329 15.0533Z" fill="white"/>
</svg>
