<svg width="88" height="88" viewBox="0 0 88 88" fill="none" xmlns="http://www.w3.org/2000/svg">
<mask id="path-1-outside-1_409_20516" maskUnits="userSpaceOnUse" x="4.33301" y="8.04468" width="80" height="71" fill="black">
<rect fill="white" x="4.33301" y="8.04468" width="80" height="71"/>
<path d="M7.33301 33.5027C7.33301 51.3334 22.0709 60.8352 32.8594 69.3399C36.6663 72.341 40.333 75.1667 43.9997 75.1667C47.6663 75.1667 51.333 72.341 55.14 69.3399C65.9284 60.8352 80.6663 51.3334 80.6663 33.5027C80.6663 15.6719 60.4991 3.0267 43.9997 20.169C27.5003 3.0267 7.33301 15.6719 7.33301 33.5027Z"/>
</mask>
<path d="M7.33301 33.5027C7.33301 51.3334 22.0709 60.8352 32.8594 69.3399C36.6663 72.341 40.333 75.1667 43.9997 75.1667C47.6663 75.1667 51.333 72.341 55.14 69.3399C65.9284 60.8352 80.6663 51.3334 80.6663 33.5027C80.6663 15.6719 60.4991 3.0267 43.9997 20.169C27.5003 3.0267 7.33301 15.6719 7.33301 33.5027Z" fill="url(#paint0_linear_409_20516)"/>
<path d="M32.8594 69.3399L31.0021 71.6959H31.0021L32.8594 69.3399ZM43.9997 20.169L41.8382 22.2494C42.4038 22.837 43.1841 23.169 43.9997 23.169C44.8152 23.169 45.5956 22.837 46.1611 22.2494L43.9997 20.169ZM55.14 69.3399L53.2827 66.9839L55.14 69.3399ZM34.7166 66.9839C29.1444 62.5912 23.0952 58.3332 18.2937 52.9265C13.5949 47.6356 10.333 41.4818 10.333 33.5027H4.33301C4.33301 43.3543 8.44004 50.8668 13.8074 56.9106C19.0719 62.8386 25.7859 67.5838 31.0021 71.6959L34.7166 66.9839ZM10.333 33.5027C10.333 25.7097 14.7361 19.1875 20.7263 16.4494C26.5273 13.7978 34.3563 14.476 41.8382 22.2494L46.1611 18.0886C37.1436 8.71974 26.6394 7.1494 18.2319 10.9925C10.0135 14.7491 4.33301 23.4649 4.33301 33.5027H10.333ZM31.0021 71.6959C32.878 73.1747 34.9077 74.7646 36.9686 75.9689C39.0284 77.1726 41.4047 78.1667 43.9997 78.1667V72.1667C42.9279 72.1667 41.6376 71.7479 39.9957 70.7885C38.3548 69.8296 36.6477 68.5062 34.7166 66.9839L31.0021 71.6959ZM56.9972 71.6959C62.2135 67.5838 68.9275 62.8386 74.192 56.9106C79.5593 50.8668 83.6663 43.3543 83.6663 33.5027H77.6663C77.6663 41.4818 74.4044 47.6356 69.7057 52.9265C64.9041 58.3332 58.855 62.5912 53.2827 66.9839L56.9972 71.6959ZM83.6663 33.5027C83.6663 23.4649 77.9858 14.7491 69.7675 10.9925C61.36 7.1494 50.8557 8.71974 41.8382 18.0886L46.1611 22.2494C53.6431 14.476 61.4721 13.7978 67.2731 16.4494C73.2632 19.1875 77.6663 25.7097 77.6663 33.5027H83.6663ZM53.2827 66.9839C51.3517 68.5062 49.6445 69.8296 48.0036 70.7885C46.3618 71.7479 45.0714 72.1667 43.9997 72.1667V78.1667C46.5946 78.1667 48.9709 77.1726 51.0308 75.9689C53.0916 74.7646 55.1213 73.1747 56.9972 71.6959L53.2827 66.9839Z" fill="#0E1018" mask="url(#path-1-outside-1_409_20516)"/>
<defs>
<linearGradient id="paint0_linear_409_20516" x1="14.2815" y1="27.2616" x2="69.0389" y2="69.4637" gradientUnits="userSpaceOnUse">
<stop stop-color="#DE0BC9"/>
<stop offset="1" stop-color="#1286F0"/>
</linearGradient>
</defs>
</svg>
