<svg width="36" height="36" viewBox="0 0 36 36" fill="none" xmlns="http://www.w3.org/2000/svg">
<g clip-path="url(#clip0_1387_15848)">
<path d="M34.4174 14.1791L21.8209 1.58272C20.8004 0.562078 19.4434 0 18 0C16.5566 0 15.1996 0.562078 14.1791 1.58272L1.58272 14.1791C0.562078 15.1997 0 16.5567 0 18C0 19.4433 0.562078 20.8003 1.58272 21.8209L14.1791 34.4173C15.1997 35.4379 16.5567 36 18 36C19.4433 36 20.8004 35.4379 21.8209 34.4173L34.4174 21.8209C35.438 20.8003 36.0001 19.4433 36.0001 18C36.0001 16.5567 35.4379 15.1997 34.4174 14.1791ZM15.677 3.08063C16.2975 2.46015 17.1225 2.11839 18 2.11839C18.8775 2.11839 19.7025 2.46015 20.323 3.08063L25.8722 8.62981L22.7497 11.7522L23.4987 12.5012C23.9765 12.9791 23.9765 13.7564 23.4987 14.2344C23.2672 14.4658 22.9594 14.5933 22.6321 14.5933C22.3048 14.5933 21.997 14.4658 21.7656 14.2344L21.0167 13.4854L18.0001 16.502L16.3069 14.8089C16.9307 13.557 16.7216 11.9925 15.6795 10.9504C15.048 10.3188 14.2082 9.97096 13.315 9.97096C12.7874 9.97096 12.2784 10.0923 11.82 10.3219L10.1279 8.62981L15.677 3.08063ZM2.11839 18C2.11839 17.1225 2.46008 16.2975 3.08056 15.677L8.62981 10.1278L11.6994 13.1974L12.4483 12.4484C12.6798 12.2169 12.9875 12.0895 13.3149 12.0895C13.6423 12.0895 13.95 12.2169 14.1815 12.4484C14.6593 12.9263 14.6593 13.7038 14.1815 14.1816L13.4325 14.9305L16.5021 18.0001L14.757 19.7451C14.2986 19.5156 13.7896 19.3942 13.2619 19.3942C12.3688 19.3942 11.529 19.742 10.8974 20.3736C9.8553 21.4158 9.64621 22.9803 10.27 24.2321L8.62981 25.8723L3.08056 20.3231C2.46008 19.7025 2.11839 18.8775 2.11839 18ZM20.323 32.9194C19.7025 33.5398 18.8776 33.8816 18.0001 33.8816C17.1226 33.8816 16.2976 33.5398 15.677 32.9194L10.1279 27.3702L13.1444 24.3536L12.3955 23.6047C11.9177 23.1268 11.9177 22.3493 12.3955 21.8715C12.627 21.64 12.9348 21.5126 13.2621 21.5126C13.5894 21.5126 13.8972 21.64 14.1286 21.8715L14.8776 22.6205L18.0001 19.498L19.6933 21.1911C19.0695 22.443 19.2786 24.0075 20.3207 25.0496C20.9523 25.6812 21.792 26.029 22.6852 26.029C23.2128 26.029 23.7218 25.9077 24.1803 25.6781L25.8723 27.3702L20.323 32.9194ZM32.9194 20.323L27.3702 25.8723L24.3006 22.8027L23.5517 23.5517C23.3202 23.7831 23.0125 23.9106 22.6851 23.9106C22.3577 23.9106 22.05 23.7831 21.8185 23.5517C21.3407 23.0738 21.3407 22.2963 21.8185 21.8185L22.5675 21.0695L19.4979 18L21.137 16.3608C21.5955 16.5904 22.1044 16.7117 22.6321 16.7117C23.5253 16.7117 24.365 16.3639 24.9966 15.7323C25.6282 15.1008 25.9761 14.261 25.9761 13.3679C25.9761 12.8402 25.8547 12.3313 25.6251 11.8728L27.3701 10.1278L32.9194 15.677C33.5398 16.2975 33.8815 17.1226 33.8815 18C33.8815 18.8774 33.5399 19.7025 32.9194 20.323Z" fill="white"/>
</g>
<defs>
<clipPath id="clip0_1387_15848">
<rect width="36" height="36" fill="white"/>
</clipPath>
</defs>
</svg>
