<svg width="32" height="32" viewBox="0 0 32 32" fill="none" xmlns="http://www.w3.org/2000/svg">
<circle cx="16.0002" cy="16" r="16" fill="white" fill-opacity="0.1"/>
<path d="M13.9089 17.6795C13.9089 19.3708 14.3883 20.9574 15.2208 22.2564H10.562C9.69582 22.2564 8.89692 21.8118 8.41758 21.0533C7.94666 20.3123 7.87097 19.3795 8.20735 18.5687C8.84646 17.0431 9.92287 15.8138 11.26 15.0118C12 15.7703 12.9671 16.3108 14.0351 16.4938C13.951 16.7815 13.9089 17.0779 13.9089 17.3918V17.6795ZM14.7078 15.2733C14.9012 15.0467 15.1367 14.8549 15.3974 14.6979L18.2314 13.0328C18.3491 12.9631 18.4668 12.9108 18.593 12.8585C18.8284 12.3354 18.9546 11.7513 18.9546 11.141C18.9546 8.85692 17.1634 7 14.9601 7C12.7568 7 10.9656 8.85692 10.9656 11.141C10.9656 13.3379 12.6223 15.1426 14.7078 15.2733ZM24.0002 17.3935V17.6795C24.0002 20.6567 22.2553 23.245 19.756 23.9756C19.7005 23.9922 19.6425 24 19.5853 24C19.5281 24 19.4701 23.9922 19.4146 23.9756C16.9153 23.2459 15.1704 20.6567 15.1704 17.6795V17.3935C15.1704 16.7362 15.4941 16.139 16.0147 15.8348L18.8528 14.1757C19.3111 13.9072 19.8594 13.9072 20.3178 14.1757L23.1559 15.8348C23.6765 16.139 24.0002 16.7362 24.0002 17.3935ZM21.2924 17.6533C21.046 17.3979 20.6466 17.3979 20.4002 17.6533L19.164 18.9349L18.7687 18.5251C18.5223 18.2697 18.1229 18.2697 17.8765 18.5251C17.6301 18.7806 17.6301 19.1947 17.8765 19.4501L18.7174 20.3219C18.8402 20.4492 19.0017 20.5137 19.1631 20.5137C19.3246 20.5137 19.4861 20.4501 19.6088 20.3219L21.2907 18.5783C21.5371 18.3229 21.5371 17.9088 21.2907 17.6533H21.2924Z" fill="white"/>
</svg>
