<svg width="50" height="50" viewBox="0 0 50 50" fill="none" xmlns="http://www.w3.org/2000/svg">
<rect width="50" height="50" rx="25" fill="white" fill-opacity="0.12"/>
<g clip-path="url(#clip0_1387_15605)">
<path fill-rule="evenodd" clip-rule="evenodd" d="M19.1863 33.0368C19.0997 33.0005 19.0067 32.9818 18.9128 32.9818C18.861 32.9819 18.8093 32.9876 18.7587 32.9986L15.3369 33.7536L16.4909 32.2622C16.6015 32.119 16.6535 31.9391 16.6363 31.759C16.6191 31.5789 16.534 31.4121 16.3983 31.2925C15.3308 30.3502 14.4759 29.1919 13.89 27.8942C13.3041 26.5965 13.0007 25.1891 13 23.7653C13 18.2306 17.5032 13.7285 23.0375 13.7285C28.5719 13.7285 33.0742 18.2309 33.0742 23.7653C33.0742 29.3004 28.5719 33.8027 23.0375 33.8027C21.7158 33.8048 20.4067 33.5444 19.1863 33.0368ZM36.7823 29.0632V29.0636C37.1241 27.6282 37.0628 26.1264 36.6052 24.7237C36.1476 23.3209 35.3115 22.0719 34.189 21.1142C34.3952 21.9828 34.4992 22.8724 34.4989 23.7652C34.4989 28.9629 31.0208 33.3637 26.27 34.7626C26.5514 34.8631 26.8379 34.9484 27.1284 35.0182C28.1557 35.2634 29.2215 35.3022 30.2638 35.1322C30.408 35.1088 30.5559 35.13 30.6877 35.1931L32.9201 36.2712L32.4393 35.2118C32.3647 35.047 32.3556 34.86 32.4138 34.6887C32.472 34.5174 32.5931 34.3746 32.7527 34.2893C33.7564 33.7534 34.6346 33.0103 35.3293 32.1092C36.024 31.2081 36.5193 30.1697 36.7823 29.0627V29.0632ZM17.6742 20.8934C17.6742 20.987 17.6926 21.0796 17.7284 21.166C17.7642 21.2525 17.8167 21.331 17.8829 21.3971C17.9491 21.4633 18.0276 21.5157 18.1141 21.5515C18.2005 21.5872 18.2932 21.6056 18.3867 21.6055L24.6903 21.6058C24.8793 21.6058 25.0605 21.5307 25.1942 21.3971C25.3278 21.2635 25.4028 21.0823 25.4028 20.8933C25.4028 20.7043 25.3278 20.5231 25.1942 20.3895C25.0605 20.2559 24.8793 20.1808 24.6903 20.1808H18.3865C18.1975 20.1808 18.0163 20.2559 17.8827 20.3895C17.7491 20.5231 17.674 20.7043 17.674 20.8933L17.6742 20.8934ZM28.9516 25.5017C28.9516 25.3127 28.8765 25.1315 28.7429 24.9979C28.6093 24.8643 28.428 24.7892 28.2391 24.7892H18.3866C18.2926 24.7884 18.1994 24.8063 18.1123 24.8417C18.0252 24.8772 17.946 24.9295 17.8793 24.9957C17.8125 25.0619 17.7596 25.1407 17.7234 25.2275C17.6873 25.3143 17.6686 25.4074 17.6686 25.5014C17.6686 25.5954 17.6873 25.6885 17.7234 25.7753C17.7596 25.8621 17.8125 25.9408 17.8793 26.007C17.946 26.0732 18.0252 26.1256 18.1123 26.161C18.1994 26.1965 18.2926 26.2143 18.3866 26.2136L28.2388 26.2139C28.4278 26.214 28.609 26.139 28.7427 26.0054C28.8764 25.8718 28.9515 25.6906 28.9516 25.5017Z" fill="white"/>
</g>
<defs>
<clipPath id="clip0_1387_15605">
<rect width="24" height="24" fill="white" transform="translate(13 13)"/>
</clipPath>
</defs>
</svg>
