<svg width="16" height="16" viewBox="0 0 16 16" fill="none" xmlns="http://www.w3.org/2000/svg">
<path d="M6.81143 12.8501C7.02355 12.6846 7.21596 12.4922 7.60072 12.1075L12.5313 7.17688C11.8602 6.89758 11.0654 6.43881 10.3138 5.68712C9.56195 4.93532 9.10315 4.14039 8.82387 3.46927L3.8932 8.39993L3.89318 8.39996C3.50843 8.78471 3.31603 8.9771 3.15058 9.18923C2.95541 9.43946 2.78807 9.71021 2.65155 9.99669C2.53581 10.2395 2.44977 10.4977 2.27769 11.0139L1.37028 13.7361C1.2856 13.9901 1.35172 14.2702 1.54107 14.4596C1.73042 14.6489 2.0105 14.715 2.26455 14.6304L4.98677 13.723C5.50299 13.5509 5.76112 13.4648 6.00397 13.3491C6.29045 13.2126 6.5612 13.0452 6.81143 12.8501Z" fill="white"/>
<path d="M13.8995 5.80871C14.9233 4.7849 14.9233 3.12499 13.8995 2.10119C12.8757 1.07739 11.2157 1.07739 10.1919 2.10119L9.60059 2.69255C9.60868 2.717 9.61708 2.74179 9.6258 2.76691C9.84255 3.39167 10.2515 4.21067 11.0209 4.98002C11.7902 5.74936 12.6092 6.15833 13.234 6.37508C13.259 6.38375 13.2837 6.39212 13.308 6.40018L13.8995 5.80871Z" fill="white"/>
</svg>
