<svg width="16" height="16" viewBox="0 0 16 16" fill="none" xmlns="http://www.w3.org/2000/svg">
<g clip-path="url(#clip0_147_6921)">
<path d="M15.7929 13.4504V15.5002C15.7929 15.7764 15.569 16.0003 15.2929 16.0003C15.0167 16.0003 14.7928 15.7764 14.7928 15.5002V13.4504C14.7928 12.6653 14.5579 11.9298 14.1314 11.3794C13.7341 10.8667 13.2201 10.5843 12.6841 10.5843H11.3553C11.0792 10.5843 10.8553 10.3604 10.8553 10.0843C10.8553 9.80807 11.0792 9.5842 11.3553 9.5842H12.6841C14.3983 9.58417 15.7929 11.3185 15.7929 13.4504ZM10.249 6.89923C9.97282 6.89923 9.74894 7.1231 9.74894 7.39929C9.74894 7.67548 9.97282 7.89935 10.249 7.89935C12.4272 7.89935 14.1993 6.12764 14.1993 3.94989C14.1993 1.77164 12.4272 -0.000488281 10.249 -0.000488281C9.97282 -0.000488281 9.74894 0.223387 9.74894 0.499574C9.74894 0.775762 9.97282 0.999637 10.249 0.999637C11.8758 0.999637 13.1992 2.32314 13.1992 3.94989C13.1992 5.57617 11.8757 6.89923 10.249 6.89923ZM1.80129 3.94989C1.80129 1.77164 3.57301 -0.000488281 5.75076 -0.000488281C7.92898 -0.000488281 9.7011 1.77164 9.7011 3.94989C9.7011 6.12764 7.92898 7.89935 5.75076 7.89935C3.57297 7.89935 1.80129 6.12764 1.80129 3.94989ZM2.80135 3.94989C2.80135 5.57617 4.12444 6.89923 5.75072 6.89923C7.37751 6.89923 8.70097 5.57617 8.70097 3.94989C8.70097 2.32311 7.37751 0.999637 5.75072 0.999637C4.12444 0.999637 2.80135 2.32314 2.80135 3.94989ZM8.18588 9.58417H3.31382C1.6006 9.58417 0.206787 11.3174 0.206787 13.4477V15.5002C0.206787 15.7764 0.430662 16.0003 0.706818 16.0003C0.982975 16.0003 1.20685 15.7764 1.20685 15.5002V13.4477C1.20685 12.6636 1.44166 11.9288 1.86804 11.3787C2.26516 10.8664 2.7786 10.5843 3.31379 10.5843H8.18582C8.72179 10.5843 9.23576 10.8666 9.6331 11.3793C10.0596 11.9297 10.2946 12.6652 10.2946 13.4504V15.5002C10.2946 15.7763 10.5184 16.0002 10.7946 16.0002C11.0708 16.0002 11.2946 15.7763 11.2946 15.5002V13.4504C11.2947 11.3185 9.90007 9.58417 8.18588 9.58417Z" fill="white"/>
</g>
<defs>
<clipPath id="clip0_147_6921">
<rect width="16" height="16" fill="white"/>
</clipPath>
</defs>
</svg>
