<svg width="22" height="22" viewBox="0 0 22 22" fill="none" xmlns="http://www.w3.org/2000/svg">
    <path d="M18.9146 15.6134C18.1717 14.0624 16.9046 13.0505 15.0944 12.5989C14.8225 12.531 14.5336 12.5984 14.3166 12.7757L12.8132 14.0041C12.5197 14.244 12.1048 14.2749 11.7822 14.0758C10.1919 13.0949 8.90515 11.8081 7.92416 10.2179C7.72514 9.89522 7.75604 9.48032 7.99589 9.18678L9.22428 7.6834C9.4016 7.46638 9.46899 7.17748 9.40114 6.90556C8.94951 5.09543 7.93758 3.8283 6.38659 3.08541C6.13637 2.96555 5.8412 2.97225 5.59648 3.10295C4.81655 3.51948 4.07038 3.99078 3.36346 4.52076C3.09278 4.72369 2.9562 5.05923 3.01252 5.39281C3.52071 8.40256 5.14695 11.5676 7.78967 14.2103C10.4324 16.8531 13.5974 18.4793 16.6072 18.9875C16.9408 19.0438 17.2763 18.9072 17.4792 18.6365C18.0092 17.9296 18.4805 17.1835 18.897 16.4035C19.0277 16.1588 19.0345 15.8636 18.9146 15.6134Z" fill="url(#paint0_linear_4037_46651)"/>
    <defs>
        <linearGradient id="paint0_linear_4037_46651" x1="3.5" y1="4" x2="11" y2="19" gradientUnits="userSpaceOnUse">
            <stop stop-color="#0BDECD"/>
            <stop offset="1" stop-color="#01D157"/>
        </linearGradient>
    </defs>
</svg>
