<svg width="24" height="24" viewBox="0 0 24 24" fill="none" xmlns="http://www.w3.org/2000/svg">
<path d="M19.9146 16.6134C19.1717 15.0624 17.9046 14.0505 16.0944 13.5989C15.8225 13.531 15.5336 13.5984 15.3166 13.7757L13.8132 15.0041C13.5197 15.244 13.1048 15.2749 12.7822 15.0758C11.1919 14.0949 9.90514 12.8081 8.92416 11.2179C8.72514 10.8952 8.75603 10.4803 8.99589 10.1868L10.2243 8.6834C10.4016 8.46638 10.469 8.17748 10.4011 7.90556C9.94951 6.09543 8.93758 4.8283 7.38659 4.08541C7.13637 3.96555 6.8412 3.97225 6.59648 4.10295C5.81655 4.51948 5.07038 4.99078 4.36346 5.52076C4.09278 5.72369 3.9562 6.05923 4.01252 6.39281C4.52071 9.40256 6.14695 12.5676 8.78967 15.2103C11.4324 17.8531 14.5974 19.4793 17.6072 19.9875C17.9408 20.0438 18.2763 19.9072 18.4792 19.6365C19.0092 18.9296 19.4805 18.1835 19.897 17.4035C20.0277 17.1588 20.0345 16.8636 19.9146 16.6134Z" fill="white"/>
</svg>
