<svg width="32" height="32" viewBox="0 0 32 32" fill="none" xmlns="http://www.w3.org/2000/svg">
<path d="M15.4205 3.68012C15.6764 3.23211 16.3223 3.23211 16.5782 3.68012L18.6835 7.36568C18.8451 7.64864 19.1876 7.77329 19.4932 7.66042L23.475 6.19032C23.959 6.01162 24.4538 6.42684 24.3619 6.93452L23.6055 11.111C23.5475 11.4317 23.7297 11.7473 24.0364 11.8573L28.0316 13.2906C28.5172 13.4648 28.6294 14.101 28.2326 14.4308L24.9686 17.144C24.718 17.3523 24.6547 17.7112 24.8189 17.9927L26.9581 21.6586C27.2182 22.1042 26.8952 22.6637 26.3792 22.6613L22.1348 22.6417C21.809 22.6402 21.5298 22.8744 21.4747 23.1956L20.757 27.3789C20.6697 27.8874 20.0627 28.1084 19.669 27.7749L16.4302 25.0316C16.1816 24.821 15.8171 24.821 15.5685 25.0316L12.3297 27.7749C11.936 28.1084 11.329 27.8874 11.2417 27.3789L10.524 23.1956C10.4689 22.8744 10.1897 22.6402 9.86386 22.6417L5.61945 22.6613C5.10352 22.6637 4.78054 22.1042 5.04057 21.6586L7.17976 17.9927C7.34399 17.7112 7.2807 17.3523 7.03011 17.144L3.7661 14.4308C3.36934 14.101 3.48151 13.4648 3.96715 13.2906L7.96229 11.8573C8.26901 11.7473 8.45124 11.4317 8.39317 11.111L7.63683 6.93452C7.54489 6.42684 8.03972 6.01162 8.52373 6.19032L12.5055 7.66042C12.8111 7.77329 13.1536 7.64864 13.3152 7.36569L15.4205 3.68012Z" fill="#FFB200"/>
<path d="M13.666 16.7778L15.2216 18.3333L19.1105 14.4444" stroke="white" stroke-width="1.16667" stroke-linecap="round" stroke-linejoin="round"/>
</svg>
