<svg width="24" height="24" viewBox="0 0 24 24" fill="none" xmlns="http://www.w3.org/2000/svg">
<path d="M12 2C17.523 2 22 6.477 22 12C22 17.523 17.523 22 12 22C9.55552 22 7.31595 21.123 5.57877 19.6664C5.57877 19.6664 3.71362 18.1712 3.09181 15.4638C3.03649 15.2229 3.22501 15 3.47218 15H4.68769C4.87124 15 5.02992 15.1257 5.08428 15.301C5.64959 17.1242 7 18.2452 7 18.2452C8.36964 19.3432 10.1082 20 12 20C16.418 20 20 16.418 20 12C20 7.582 16.418 4 12 4C9.536 4 7.332 5.114 5.865 6.865L7.31716 8.31716C7.56914 8.56914 7.39068 9 7.03431 9H2.4C2.17909 9 2 8.82091 2 8.6V3.96541C2 3.60908 2.43078 3.4306 2.68278 3.68251L4.447 5.446C6.28 3.336 8.984 2 12 2Z" fill="white"/>
</svg>
