<svg width="32" height="32" viewBox="0 0 32 32" fill="none" xmlns="http://www.w3.org/2000/svg">
<path d="M16.1055 3C9.71419 3 4.46003 7.884 3.94773 14.1111H2.66702C2.26184 14.1111 1.89671 14.3556 1.74239 14.7302C1.58807 15.1049 1.67507 15.5356 1.9627 15.821L4.20245 18.0432C4.59233 18.43 5.22122 18.43 5.61109 18.0432L7.85084 15.821C8.13847 15.5356 8.22547 15.1049 8.07115 14.7302C7.91683 14.3556 7.5517 14.1111 7.14652 14.1111H5.95606C6.46235 9.00222 10.8067 5 16.1055 5C19.7982 5 23.0306 6.9446 24.8211 9.85705C25.1103 10.3275 25.7262 10.4745 26.1967 10.1852C26.6672 9.89598 26.8141 9.2801 26.5249 8.80961C24.3831 5.3257 20.5167 3 16.1055 3Z" fill="white"/>
<path d="M27.7885 13.9554C27.399 13.5704 26.7721 13.5704 26.3826 13.9554L24.1343 16.1777C23.8459 16.4627 23.7582 16.8938 23.9122 17.2689C24.0663 17.644 24.4317 17.8889 24.8372 17.8889H26.036C25.5277 22.9949 21.1682 27 15.844 27C12.134 27 8.88814 25.0537 7.09094 22.1415C6.80089 21.6715 6.18476 21.5256 5.71477 21.8157C5.24477 22.1057 5.0989 22.7218 5.38894 23.1918C7.53909 26.676 11.4191 29 15.844 29C22.2545 29 27.5303 24.119 28.0445 17.8889H29.3339C29.7394 17.8889 30.1048 17.644 30.2589 17.2689C30.4129 16.8938 30.3252 16.4627 30.0368 16.1777L27.7885 13.9554Z" fill="white"/>
</svg>
