<svg xmlns="http://www.w3.org/2000/svg" width="36" height="57" viewBox="0 0 36 57" version="1.1"><path d="M 2.035 1.934 C 0.776 4.287, 0.718 8.007, 1.912 9.892 C 2.652 11.060, 3.533 10.979, 7.393 9.392 C 9.923 8.351, 11.994 6.978, 11.996 6.339 C 12.001 4.830, 6.258 -0, 4.458 -0 C 3.695 -0, 2.605 0.870, 2.035 1.934 M 27.975 2.250 C 26.149 3.488, 24.486 5.012, 24.281 5.638 C 23.826 7.026, 32.532 11.408, 33.973 10.517 C 35.094 9.824, 35.363 4.110, 34.393 1.582 C 33.564 -0.579, 31.894 -0.405, 27.975 2.250 M 11.315 9.102 C 4.385 11.107, -0.094 18.741, 1.473 25.875 C 2.556 30.808, 5.498 33.549, 13.472 37.053 C 17.613 38.873, 21 40.955, 21 41.681 C 21 43.546, 14.621 43.372, 10.812 41.403 C 7.735 39.811, 7.709 39.820, 3.669 43.861 C -0.249 47.778, -0.327 47.982, 1.378 49.865 C 2.349 50.938, 5.456 52.810, 8.285 54.027 C 12.349 55.775, 14.639 56.129, 19.208 55.715 C 32.301 54.528, 39.276 44.707, 34.370 34.367 C 32.541 30.512, 31.225 29.619, 22.082 26.024 C 18.551 24.636, 15.495 22.993, 15.289 22.373 C 14.586 20.252, 18.307 19.943, 22.079 21.809 L 25.848 23.674 30.174 20.252 C 32.553 18.370, 34.685 16.646, 34.911 16.421 C 35.773 15.562, 31.328 11.639, 27.500 9.881 C 23.230 7.920, 16.516 7.597, 11.315 9.102" stroke="none" fill="#fffcfc" fill-rule="evenodd"/><path d="" stroke="none" fill="#fcfcfc" fill-rule="evenodd"/></svg>