<svg xmlns="http://www.w3.org/2000/svg" width="254" height="435" viewBox="0 0 254 435" version="1.1"><path d="M 36.565 35.250 C 33.816 38.011, 33.047 39.929, 31.449 48 C 27.893 65.957, 29.875 93.044, 35.155 98.665 C 38.815 102.560, 42.470 101.768, 51.275 95.171 C 60.719 88.096, 70.645 83.079, 82.112 79.586 C 91.853 76.619, 94 74.855, 94 69.816 C 94 66.896, 92.957 65.151, 87.935 59.670 C 79.817 50.811, 67.829 41.934, 56.614 36.478 C 45.085 30.870, 41.164 30.630, 36.565 35.250 M 211.969 36.784 C 199.721 42.844, 190.980 49.129, 183.138 57.512 C 176.333 64.787, 174.675 67.857, 175.588 71.496 C 176.522 75.216, 178.897 76.629, 188 78.879 C 198.956 81.587, 210.926 87.532, 218.500 94.027 C 225.614 100.129, 228.116 101.287, 231.448 100.020 C 235.217 98.587, 236.774 95.302, 238.572 84.988 C 240.492 73.976, 240.098 58.857, 237.581 47 C 235.627 37.796, 234.356 35.235, 230.835 33.415 C 226.274 31.056, 222.006 31.818, 211.969 36.784 M 123.500 83.597 C 91.787 86.825, 66.836 97.861, 49.145 116.484 C 34.526 131.874, 27.983 149.167, 28.013 172.338 C 28.041 194.142, 34.256 212.236, 47.500 229.073 C 58.960 243.641, 86.052 258.555, 123 270.633 C 150.624 279.663, 158.657 285.364, 157.733 295.283 C 157.192 301.088, 154.539 304.239, 148.099 306.725 C 141.294 309.351, 121.315 309.025, 110.500 306.110 C 99.982 303.276, 86.275 296.463, 77.155 289.535 L 69.809 283.956 44.405 308.602 C 30.432 322.158, 19 333.675, 19 334.196 C 19 334.717, 22.756 338.898, 27.346 343.488 C 45.497 361.639, 72.890 375.643, 100 380.630 C 113.763 383.161, 143.984 383.159, 157.500 380.625 C 201.128 372.446, 232.207 347.899, 242.071 313.829 C 244.803 304.393, 245.794 283.223, 244.019 272.215 C 240.426 249.927, 228.474 231.596, 208.776 218.162 C 200.630 212.606, 183.545 205.583, 161 198.522 C 125.871 187.521, 115.375 181.507, 114.275 171.751 C 113.207 162.272, 118.464 157.923, 131.872 157.192 C 146.861 156.376, 159.871 161.093, 173.926 172.440 L 181.748 178.755 209.124 157.298 C 224.181 145.497, 237.361 135.004, 238.413 133.980 C 240.296 132.148, 240.280 132.055, 237.489 128.309 C 232.286 121.325, 219.209 109.266, 210.695 103.601 C 190.784 90.353, 170.441 84.389, 142.500 83.609 C 134.250 83.379, 125.700 83.373, 123.500 83.597" stroke="none" fill="#fffcfc" fill-rule="evenodd"/><path d="" stroke="none" fill="#fcfcfc" fill-rule="evenodd"/></svg>