<svg width="38" height="38" viewBox="0 0 38 38" fill="none" xmlns="http://www.w3.org/2000/svg">
<circle cx="19" cy="19" r="18.5" transform="matrix(-1 0 0 1 38 0)" stroke="url(#paint0_linear_749_2817)"/>
<path fill-rule="evenodd" clip-rule="evenodd" d="M28.9417 18.2816L28.7125 20.7168C28.3349 24.7294 28.146 26.7357 26.9634 27.9455C25.7808 29.1553 24.0083 29.1553 20.4634 29.1553H17.7436C14.1987 29.1553 12.4262 29.1553 11.2436 27.9455C10.061 26.7357 9.87217 24.7294 9.49452 20.7168L9.26532 18.2816C9.08532 16.369 8.99531 15.4127 9.3225 15.0173C9.49949 14.8035 9.74017 14.6725 9.9975 14.6499C10.4732 14.6081 11.0706 15.2882 12.2654 16.6483C12.8833 17.3518 13.1922 17.7035 13.5369 17.7579C13.7279 17.7881 13.9224 17.7571 14.0988 17.6684C14.417 17.5082 14.6292 17.0734 15.0536 16.2038L17.2904 11.6201C18.0924 9.97689 18.4933 9.15527 19.1035 9.15527C19.7137 9.15527 20.1147 9.97689 20.9166 11.6201L23.1534 16.2038C23.5778 17.0734 23.79 17.5082 24.1083 17.6684C24.2846 17.7571 24.4792 17.7881 24.6701 17.7579C25.0148 17.7035 25.3237 17.3518 25.9416 16.6483C27.1364 15.2882 27.7338 14.6081 28.2095 14.6499C28.4669 14.6725 28.7075 14.8035 28.8845 15.0173C29.2117 15.4127 29.1217 16.369 28.9417 18.2816ZM20.0559 19.8543L19.9576 19.6779C19.5776 18.9963 19.3876 18.6554 19.1035 18.6554C18.8195 18.6554 18.6295 18.9963 18.2495 19.6779L18.1512 19.8543C18.0432 20.048 17.9892 20.1449 17.905 20.2088C17.8208 20.2727 17.716 20.2964 17.5063 20.3438L17.3154 20.387C16.5775 20.554 16.2085 20.6375 16.1207 20.9198C16.033 21.202 16.2845 21.4962 16.7875 22.0844L16.9177 22.2366C17.0606 22.4038 17.1321 22.4873 17.1643 22.5907C17.1964 22.6941 17.1856 22.8057 17.164 23.0287L17.1443 23.2318C17.0683 24.0166 17.0303 24.409 17.2601 24.5835C17.4899 24.758 17.8353 24.5989 18.5262 24.2808L18.705 24.1985C18.9013 24.1081 18.9995 24.0629 19.1035 24.0629C19.2076 24.0629 19.3057 24.1081 19.5021 24.1985L19.6808 24.2808C20.3717 24.5989 20.7172 24.758 20.947 24.5835C21.1768 24.409 21.1388 24.0166 21.0627 23.2317L21.043 23.0287C21.0214 22.8057 21.0106 22.6941 21.0428 22.5907C21.0749 22.4873 21.1464 22.4038 21.2893 22.2366L21.4195 22.0844C21.9225 21.4962 22.1741 21.202 22.0863 20.9198C21.9985 20.6375 21.6296 20.554 20.8917 20.387L20.7007 20.3438C20.4911 20.2964 20.3862 20.2727 20.302 20.2088C20.2179 20.1449 20.1639 20.048 20.0559 19.8543Z" fill="white"/>
<defs>
<linearGradient id="paint0_linear_749_2817" x1="6.5" y1="35" x2="33.5" y2="8" gradientUnits="userSpaceOnUse">
<stop stop-color="#1286F0"/>
<stop offset="1" stop-color="#DE0BC9"/>
</linearGradient>
</defs>
</svg>
