<svg width="40" height="40" viewBox="0 0 40 40" fill="none" xmlns="http://www.w3.org/2000/svg">
<path d="M8.23996 1.56726C7.8182 2.54874 7.50332 3.57278 7.30076 4.62166C6.76396 7.40486 6.88236 11.1305 8.00556 11.4345C8.35116 11.5281 8.67756 11.2657 9.20556 10.8377C11.0184 9.37686 10.6416 7.93366 12.4672 5.32646C12.8232 4.81846 12.984 4.66406 12.9792 4.35286C12.96 3.08326 10.2264 2.12166 8.23996 1.56726Z" fill="url(#paint0_linear_409_11871)"/>
<path d="M12.8231 5.47836C12.1223 5.55836 11.6399 5.53436 11.2943 5.55836C10.9702 5.58434 10.6526 5.66353 10.3543 5.79276C10.3582 5.52038 10.4527 5.25705 10.6229 5.04438C10.7932 4.83171 11.0294 4.68181 11.2943 4.61836C11.1338 4.49362 10.947 4.40715 10.7481 4.36556C10.5491 4.32397 10.3433 4.32835 10.1463 4.37836C10.143 4.37911 10.1396 4.37909 10.1364 4.37829C10.1331 4.3775 10.1301 4.37595 10.1275 4.37378C10.1249 4.3716 10.1229 4.36886 10.1216 4.36577C10.1203 4.36267 10.1197 4.35931 10.1199 4.35596C10.1286 4.09133 10.224 3.83689 10.3916 3.63189C10.5591 3.42688 10.7895 3.28269 11.0471 3.22156L12.8231 5.47836Z" fill="white"/>
<path d="M30.4848 1.56726C30.9066 2.54874 31.2214 3.57278 31.424 4.62166C31.9608 7.40486 31.8424 11.1305 30.7192 11.4345C30.3728 11.5281 30.0472 11.2657 29.5192 10.8377C27.7048 9.37686 28.08 7.93366 26.256 5.32646C25.9 4.81846 25.7392 4.66406 25.744 4.35286C25.76 3.08326 28.4984 2.12166 30.4848 1.56726Z" fill="url(#paint1_linear_409_11871)"/>
<path d="M25.9009 5.47834C26.6025 5.55834 27.0849 5.53434 27.4305 5.55834C27.7546 5.58432 28.0721 5.66352 28.3705 5.79274C28.3666 5.52036 28.2721 5.25704 28.1018 5.04437C27.9316 4.8317 27.6954 4.6818 27.4305 4.61834C27.5909 4.4936 27.7778 4.40714 27.9767 4.36555C28.1757 4.32396 28.3815 4.32833 28.5785 4.37834C28.5818 4.3791 28.5852 4.37908 28.5884 4.37828C28.5917 4.37749 28.5947 4.37594 28.5973 4.37376C28.5999 4.37159 28.6019 4.36885 28.6032 4.36575C28.6045 4.36266 28.6051 4.3593 28.6049 4.35594C28.596 4.09192 28.5007 3.83809 28.3337 3.63345C28.1666 3.42881 27.937 3.28466 27.6801 3.22314L25.9009 5.47834Z" fill="white"/>
<path d="M33.44 25.9304C33.073 23.0376 31.664 20.6944 29.2128 18.9008C27.224 17.4512 24.5109 16.4272 21.0736 15.8288C20.7888 15.784 20.5136 15.7352 20.2432 15.6832C19.9728 15.6312 19.728 15.5824 19.504 15.5368C17.3962 15.1042 16.9178 14.4909 18.0688 13.6968C19.2197 12.9026 20.1688 12.7981 20.916 13.3832C21.2152 13.6226 21.3685 13.8768 21.376 14.1456C21.3834 14.4144 21.5434 14.661 21.856 14.8856C22.0966 15.0764 22.4026 15.1649 22.708 15.132C23.2162 15.1176 23.9786 15.0205 24.9952 14.8408C26.0113 14.6609 27.0094 14.3907 27.9776 14.0336C28.9488 13.6741 29.7597 13.2208 30.4104 12.6736C31.061 12.1264 31.2744 11.4722 31.0504 10.7112C30.4669 8.73782 29.409 7.15702 27.8768 5.96876C27.4142 5.61155 26.9274 5.28678 26.42 4.99676C27.62 2.77916 30.4872 1.56236 30.4872 1.56236C30.4872 1.56236 24.8912 1.24236 21.8584 3.44556C20.2477 3.21868 18.6109 3.25516 17.012 3.55356C14.0128 1.23996 8.23996 1.56716 8.23996 1.56716C8.23996 1.56716 11.3224 2.87356 12.432 5.24716C12.0628 5.46738 11.705 5.70609 11.36 5.96236C8.65383 7.98102 7.15143 10.5536 6.85276 13.68C6.64316 15.9973 6.8565 17.8584 7.49276 19.2632C8.12903 20.668 9.00716 21.7744 10.1272 22.5824C11.6813 23.7333 13.3258 24.4394 15.0608 24.7008C16.826 24.9696 18.5715 25.3555 20.2856 25.856C21.0173 26.0656 21.4656 26.3346 21.6304 26.6632C21.9445 27.3656 21.7312 27.8626 20.9904 28.1544C20.2496 28.4461 19.6032 28.4797 19.0512 28.2552C18.5872 28.076 18.2733 27.7994 18.1096 27.4256C18.0524 27.3292 18.0144 27.2227 17.9976 27.112C17.8626 26.5733 17.3026 26.1584 16.3176 25.8672C15.3325 25.576 14.2264 25.4301 12.9992 25.4296C12.2137 25.4481 11.4306 25.5232 10.656 25.6544C9.88444 25.7728 9.13287 25.9968 8.42236 26.32C6.89756 27.0069 6.26983 27.9784 6.53916 29.2344C7.16636 31.8952 8.7285 34.1002 11.2256 35.8496C14.1248 37.9125 17.5666 38.7458 21.5512 38.3496C25.5357 37.9533 28.6938 36.4024 31.0256 33.6968C32.9984 31.412 33.8032 28.8232 33.44 25.9304Z" fill="url(#paint2_linear_409_11871)"/>
<defs>
<linearGradient id="paint0_linear_409_11871" x1="6.99196" y1="6.51046" x2="12.9808" y2="6.51046" gradientUnits="userSpaceOnUse">
<stop stop-color="#E9B1EA"/>
<stop offset="1" stop-color="#E679E4"/>
</linearGradient>
<linearGradient id="paint1_linear_409_11871" x1="31.7336" y1="6.51046" x2="25.744" y2="6.51046" gradientUnits="userSpaceOnUse">
<stop stop-color="#E9B1EA"/>
<stop offset="1" stop-color="#E679E4"/>
</linearGradient>
<linearGradient id="paint2_linear_409_11871" x1="5.90076" y1="3.90716" x2="33.3864" y2="31.392" gradientUnits="userSpaceOnUse">
<stop stop-color="#DE0BC9"/>
<stop offset="1" stop-color="#1286F0"/>
</linearGradient>
</defs>
</svg>
