<svg width="24" height="24" viewBox="0 0 24 24" fill="none" xmlns="http://www.w3.org/2000/svg">
    <path d="M12.0016 14.3996C13.4075 14.3996 14.5472 13.3251 14.5472 11.9996C14.5472 10.6741 13.4075 9.59961 12.0016 9.59961C10.5957 9.59961 9.45605 10.6741 9.45605 11.9996C9.45605 13.3251 10.5957 14.3996 12.0016 14.3996Z" stroke="white" stroke-width="1.5"/>
    <path d="M13.4976 4.1216C13.1862 4 12.7908 4 12 4C11.2092 4 10.8138 4 10.5024 4.1216C10.2963 4.20201 10.1091 4.31992 9.95144 4.46858C9.79376 4.61724 9.6687 4.79374 9.58342 4.988C9.50535 5.1664 9.47396 5.3752 9.46208 5.6784C9.45679 5.89759 9.3925 6.11192 9.27524 6.30126C9.15799 6.49059 8.99161 6.64872 8.79175 6.7608C8.58886 6.86803 8.3604 6.92488 8.12781 6.926C7.89522 6.92712 7.66615 6.87248 7.46212 6.7672C7.17701 6.6248 6.97082 6.5464 6.76633 6.5208C6.32028 6.4655 5.86919 6.57945 5.51222 6.8376C5.24578 7.032 5.04723 7.3544 4.65182 8C4.25641 8.6456 4.05786 8.968 4.01458 9.284C3.98542 9.49236 4.00009 9.7041 4.05774 9.90712C4.1154 10.1101 4.21491 10.3005 4.3506 10.4672C4.47618 10.6208 4.65182 10.7496 4.92419 10.9112C5.32554 11.1488 5.58349 11.5536 5.58349 12C5.58349 12.4464 5.32554 12.8512 4.92419 13.088C4.65182 13.2504 4.47533 13.3792 4.3506 13.5328C4.21491 13.6995 4.1154 13.8899 4.05774 14.0929C4.00009 14.2959 3.98542 14.5076 4.01458 14.716C4.0587 15.0312 4.25641 15.3544 4.65097 16C5.04723 16.6456 5.24494 16.968 5.51222 17.1624C5.68908 17.2903 5.89094 17.3841 6.10627 17.4385C6.3216 17.4929 6.54618 17.5067 6.76718 17.4792C6.97082 17.4536 7.17701 17.3752 7.46212 17.2328C7.66615 17.1275 7.89522 17.0729 8.12781 17.074C8.3604 17.0751 8.58886 17.132 8.79175 17.2392C9.20158 17.4632 9.44511 17.8752 9.46208 18.3216C9.47396 18.6256 9.5045 18.8336 9.58342 19.012C9.6687 19.2063 9.79376 19.3828 9.95144 19.5314C10.1091 19.6801 10.2963 19.798 10.5024 19.8784C10.8138 20 11.2092 20 12 20C12.7908 20 13.1862 20 13.4976 19.8784C13.7037 19.798 13.8909 19.6801 14.0486 19.5314C14.2062 19.3828 14.3313 19.2063 14.4166 19.012C14.4946 18.8336 14.526 18.6256 14.5379 18.3216C14.5549 17.8752 14.7984 17.4624 15.2083 17.2392C15.4111 17.132 15.6396 17.0751 15.8722 17.074C16.1048 17.0729 16.3338 17.1275 16.5379 17.2328C16.823 17.3752 17.0292 17.4536 17.2328 17.4792C17.4538 17.5067 17.6784 17.4929 17.8937 17.4385C18.1091 17.3841 18.3109 17.2903 18.4878 17.1624C18.7551 16.9688 18.9528 16.6456 19.3482 16C19.7436 15.3544 19.9421 15.032 19.9854 14.716C20.0146 14.5076 19.9999 14.2959 19.9423 14.0929C19.8846 13.8899 19.7851 13.6995 19.6494 13.5328C19.5238 13.3792 19.3482 13.2504 19.0758 13.0888C18.877 12.9749 18.7122 12.8152 18.5969 12.6247C18.4816 12.4343 18.4195 12.2193 18.4165 12C18.4165 11.5536 18.6745 11.1488 19.0758 10.912C19.3482 10.7496 19.5247 10.6208 19.6494 10.4672C19.7851 10.3005 19.8846 10.1101 19.9423 9.90712C19.9999 9.7041 20.0146 9.49236 19.9854 9.284C19.9413 8.9688 19.7436 8.6456 19.349 8C18.9528 7.3544 18.7551 7.032 18.4878 6.8376C18.3109 6.70967 18.1091 6.61585 17.8937 6.56149C17.6784 6.50714 17.4538 6.49331 17.2328 6.5208C17.0292 6.5464 16.823 6.6248 16.537 6.7672C16.3331 6.87233 16.1042 6.9269 15.8718 6.92578C15.6393 6.92466 15.411 6.86789 15.2083 6.7608C15.0084 6.64872 14.842 6.49059 14.7248 6.30126C14.6075 6.11192 14.5432 5.89759 14.5379 5.6784C14.526 5.3744 14.4955 5.1664 14.4166 4.988C14.3313 4.79374 14.2062 4.61724 14.0486 4.46858C13.8909 4.31992 13.7037 4.20201 13.4976 4.1216Z" stroke="white" stroke-width="1.5"/>
</svg>
