<svg width="16" height="16" viewBox="0 0 16 16" fill="none" xmlns="http://www.w3.org/2000/svg">
<g clip-path="url(#clip0_346_17609)">
<path fill-rule="evenodd" clip-rule="evenodd" d="M7.99967 0.833344C8.27582 0.833344 8.49967 1.0572 8.49967 1.33334V2.66668C8.49967 2.94282 8.27582 3.16668 7.99967 3.16668C7.72353 3.16668 7.49967 2.94282 7.49967 2.66668V1.33334C7.49967 1.0572 7.72353 0.833344 7.99967 0.833344ZM3.64612 3.64646C3.84138 3.45119 4.15797 3.45119 4.35323 3.64646L4.58207 3.8753C4.77733 4.07056 4.77733 4.38714 4.58207 4.5824C4.38681 4.77767 4.07022 4.77767 3.87496 4.5824L3.64612 4.35356C3.45086 4.1583 3.45086 3.84172 3.64612 3.64646ZM12.3532 3.64646C12.5485 3.84172 12.5485 4.1583 12.3532 4.35356L12.1244 4.5824C11.9291 4.77767 11.6125 4.77767 11.4173 4.5824C11.222 4.38714 11.222 4.07056 11.4173 3.8753L11.6461 3.64646C11.8414 3.45119 12.158 3.45119 12.3532 3.64646ZM0.833008 8.00001C0.833008 7.72387 1.05687 7.50001 1.33301 7.50001H2.66634C2.94248 7.50001 3.16634 7.72387 3.16634 8.00001C3.16634 8.27615 2.94248 8.50001 2.66634 8.50001H1.33301C1.05687 8.50001 0.833008 8.27615 0.833008 8.00001ZM12.833 8.00001C12.833 7.72387 13.0569 7.50001 13.333 7.50001H14.6663C14.9425 7.50001 15.1663 7.72387 15.1663 8.00001C15.1663 8.27615 14.9425 8.50001 14.6663 8.50001H13.333C13.0569 8.50001 12.833 8.27615 12.833 8.00001ZM4.58193 11.4178C4.77719 11.613 4.77719 11.9296 4.58193 12.1249L4.35323 12.3536C4.15797 12.5488 3.84138 12.5488 3.64612 12.3536C3.45086 12.1583 3.45086 11.8417 3.64612 11.6465L3.87482 11.4178C4.07008 11.2225 4.38666 11.2225 4.58193 11.4178ZM11.4174 11.4178C11.6127 11.2225 11.9293 11.2225 12.1245 11.4178L12.3532 11.6465C12.5485 11.8417 12.5485 12.1583 12.3532 12.3536C12.158 12.5488 11.8414 12.5488 11.6461 12.3536L11.4174 12.1249C11.2222 11.9296 11.2222 11.613 11.4174 11.4178ZM7.99967 12.8333C8.27582 12.8333 8.49967 13.0572 8.49967 13.3333V14.6667C8.49967 14.9428 8.27582 15.1667 7.99967 15.1667C7.72353 15.1667 7.49967 14.9428 7.49967 14.6667V13.3333C7.49967 13.0572 7.72353 12.8333 7.99967 12.8333Z" fill="white"/>
<path d="M4.66699 7.37301C4.66699 9.0679 6.0068 9.97108 6.98757 10.7795C7.33366 11.0648 7.66699 11.3333 8.00033 11.3333C8.33366 11.3333 8.66699 11.0648 9.01308 10.7795C9.99385 9.97108 11.3337 9.0679 11.3337 7.37301C11.3337 5.67813 9.50027 4.47615 8.00033 6.10559C6.50038 4.47615 4.66699 5.67813 4.66699 7.37301Z" fill="white"/>
</g>
<defs>
<clipPath id="clip0_346_17609">
<rect width="16" height="16" fill="white"/>
</clipPath>
</defs>
</svg>
