<svg width="16" height="16" viewBox="0 0 16 16" fill="none" xmlns="http://www.w3.org/2000/svg">
<path fill-rule="evenodd" clip-rule="evenodd" d="M8.00065 14.6666C11.6825 14.6666 14.6673 11.6818 14.6673 7.99992C14.6673 4.31802 11.6825 1.33325 8.00065 1.33325C4.31875 1.33325 1.33398 4.31802 1.33398 7.99992C1.33398 11.6818 4.31875 14.6666 8.00065 14.6666ZM10.4845 10.8005C10.6743 10.909 10.9173 10.8584 11.0312 10.6776C11.1451 10.4969 11.0843 10.2656 10.8945 10.1572C9.22402 9.18125 7.14349 8.95715 4.72126 9.48486C4.50866 9.52824 4.37957 9.73065 4.42513 9.93306C4.47069 10.1355 4.6833 10.2584 4.89591 10.215C7.11312 9.73788 8.98863 9.93306 10.4845 10.8005ZM11.1223 9.18848C11.3577 9.3186 11.6614 9.25354 11.8057 9.02944C11.95 8.80534 11.874 8.51618 11.6538 8.38606C9.6872 7.23665 6.81698 6.91858 4.50866 7.58364C4.24289 7.65593 4.09862 7.91618 4.17456 8.16919C4.25049 8.41498 4.52384 8.55233 4.7896 8.48004C6.80939 7.89449 9.41385 8.18365 11.1223 9.18848ZM4.48588 6.60773C6.44492 6.04387 9.82388 6.15231 11.874 7.30894C12.155 7.47521 12.5195 7.38123 12.6789 7.10653C12.846 6.83906 12.7548 6.49207 12.4739 6.33303C10.12 5.0029 6.38417 4.87278 4.13659 5.52339C3.82527 5.61736 3.64303 5.93544 3.74174 6.23183C3.84046 6.53544 4.17456 6.70171 4.48588 6.60773Z" fill="#1ED760"/>
</svg>
