<svg width="24" height="24" viewBox="0 0 24 24" fill="none" xmlns="http://www.w3.org/2000/svg">
<path fill-rule="evenodd" clip-rule="evenodd" d="M10.1017 2.39624C10.5767 1.77424 11.1657 1.25024 11.9997 1.25024C12.8337 1.25024 13.4217 1.77424 13.8987 2.39624C14.3667 3.00824 14.8637 3.89924 15.4707 4.98824L15.8297 5.63124C16.2217 6.33524 16.3227 6.48524 16.4487 6.58124C16.5687 6.67224 16.7257 6.72424 17.4887 6.89724L18.1887 7.05524C19.3647 7.32124 20.3337 7.54024 21.0387 7.81824C21.7707 8.10724 22.4117 8.53224 22.6587 9.32524C22.9027 10.1102 22.6287 10.8322 22.2047 11.5052C21.7927 12.1602 21.1347 12.9302 20.3307 13.8702L19.8557 14.4252C19.3387 15.0292 19.2307 15.1772 19.1797 15.3402C19.1287 15.5072 19.1327 15.7002 19.2117 16.5052L19.2827 17.2432C19.4047 18.4992 19.5037 19.5232 19.4687 20.3032C19.4337 21.0982 19.2537 21.8602 18.5987 22.3582C17.9307 22.8642 17.1537 22.8082 16.4037 22.5922C15.6767 22.3842 14.7707 21.9672 13.6707 21.4602L13.0147 21.1582C12.2967 20.8282 12.1437 20.7752 11.9997 20.7752C11.8557 20.7752 11.7027 20.8282 10.9847 21.1582L10.3297 21.4602C9.22875 21.9672 8.32274 22.3842 7.59574 22.5922C6.84574 22.8072 6.06874 22.8642 5.40174 22.3582C4.74574 21.8602 4.56574 21.0982 4.53074 20.3042C4.49574 19.5242 4.59474 18.4992 4.71674 17.2442L4.78874 16.5052C4.86674 15.6992 4.87074 15.5072 4.81874 15.3402C4.76874 15.1772 4.66074 15.0302 4.14374 14.4252L3.66874 13.8702C2.86574 12.9302 2.20774 12.1602 1.79574 11.5062C1.37074 10.8322 1.09674 10.1102 1.34074 9.32524C1.58774 8.53224 2.22874 8.10724 2.96074 7.81824C3.66574 7.54024 4.63474 7.32124 5.81074 7.05524L5.87374 7.04124L6.50974 6.89724C7.27374 6.72424 7.42974 6.67224 7.55074 6.58024C7.67674 6.48524 7.77774 6.33524 8.17074 5.63124L8.52874 4.98824C9.13574 3.89824 9.63375 3.00824 10.1017 2.39624Z" fill="#FFD600"/>
</svg>
