<svg width="20" height="20" viewBox="0 0 20 20" fill="none" xmlns="http://www.w3.org/2000/svg">
<path d="M11.848 2.91637C10.6638 2.36121 9.33676 2.36121 8.15259 2.91637L2.57666 5.53049C1.67999 5.95087 1.44621 7.13627 1.87533 7.95555L1.87533 12.0833C1.87533 12.4285 2.15515 12.7083 2.50033 12.7083C2.8455 12.7083 3.12533 12.4285 3.12533 12.0833V8.89336L8.15266 11.2503C9.33683 11.8055 10.6639 11.8055 11.8481 11.2503L17.424 8.63617C18.6369 8.06754 18.6369 6.09916 17.424 5.53053L11.848 2.91637Z" fill="white"/>
<path d="M4.16699 10.7623V13.8545C4.16699 14.6945 4.58658 15.481 5.32144 15.888C6.54508 16.5656 8.50365 17.5 10.0003 17.5C11.497 17.5 13.4556 16.5656 14.6792 15.888C15.4141 15.481 15.8337 14.6945 15.8337 13.8545V10.7623L12.3787 12.3821C10.8583 13.0949 9.14241 13.0949 7.62205 12.3821L4.16699 10.7623Z" fill="white"/>
</svg>
