<svg width="16" height="16" viewBox="0 0 16 16" fill="none" xmlns="http://www.w3.org/2000/svg">
<path fill-rule="evenodd" clip-rule="evenodd" d="M7.20038 1.71309C7.25244 1.96961 7.08671 2.21976 6.8302 2.27182C4.54073 2.73652 2.73621 4.54102 2.27148 6.83047C2.21941 7.08698 1.96926 7.25272 1.71275 7.20065C1.45624 7.14858 1.2905 6.89843 1.34257 6.64192C1.88303 3.97939 3.97912 1.88333 6.64165 1.34291C6.89817 1.29085 7.14831 1.45658 7.20038 1.71309Z" fill="white"/>
<path fill-rule="evenodd" clip-rule="evenodd" d="M1.71285 8.79935C1.96936 8.74728 2.21951 8.91301 2.27158 9.16952C2.73631 11.459 4.54083 13.2635 6.8303 13.7282C7.08681 13.7802 7.25254 14.0304 7.20048 14.2869C7.14842 14.5434 6.89827 14.7091 6.64175 14.6571C3.97922 14.1167 1.88314 12.0206 1.34267 9.35808C1.2906 9.10157 1.45634 8.85141 1.71285 8.79935Z" fill="white"/>
<path fill-rule="evenodd" clip-rule="evenodd" d="M8.79897 1.71306C8.85104 1.45655 9.10119 1.29081 9.3577 1.34288C12.0202 1.8833 14.1163 3.97936 14.6568 6.64188C14.7088 6.89839 14.5431 7.14855 14.2866 7.20061C14.0301 7.25268 13.7799 7.08695 13.7279 6.83044C13.2631 4.54098 11.4586 2.73649 9.16915 2.27179C8.91264 2.21972 8.74691 1.96957 8.79897 1.71306Z" fill="white"/>
<path fill-rule="evenodd" clip-rule="evenodd" d="M14.2866 8.79935C14.5431 8.85141 14.7088 9.10157 14.6568 9.35808C14.1163 12.0206 12.0202 14.1167 9.3577 14.6571C9.10119 14.7091 8.85104 14.5434 8.79897 14.2869C8.74691 14.0304 8.91264 13.7802 9.16915 13.7282C11.4586 13.2635 13.2631 11.459 13.7279 9.16952C13.7799 8.91301 14.0301 8.74728 14.2866 8.79935Z" fill="white"/>
<path fill-rule="evenodd" clip-rule="evenodd" d="M7.99963 13.0552C10.7915 13.0552 13.0548 10.7919 13.0548 8C13.0548 5.20808 10.7915 2.94479 7.99963 2.94479C5.20771 2.94479 2.94442 5.20808 2.94442 8C2.94442 10.7919 5.20771 13.0552 7.99963 13.0552ZM5.96015 9.69247C6.11601 9.4822 6.41283 9.43809 6.6231 9.59395C7.01617 9.88531 7.49002 10.0537 7.99963 10.0537C8.50923 10.0537 8.98308 9.88531 9.37615 9.59395C9.58642 9.43809 9.88324 9.4822 10.0391 9.69247C10.195 9.90275 10.1509 10.1996 9.94058 10.3554C9.39328 10.7611 8.72349 11.0015 7.99963 11.0015C7.27576 11.0015 6.60597 10.7611 6.05867 10.3554C5.8484 10.1996 5.80429 9.90275 5.96015 9.69247ZM10.2113 6.93366C10.2113 7.39171 9.96373 7.76303 9.65836 7.76303C9.353 7.76303 9.10545 7.39171 9.10545 6.93366C9.10545 6.47561 9.353 6.10429 9.65836 6.10429C9.96373 6.10429 10.2113 6.47561 10.2113 6.93366ZM6.34089 7.76303C6.64625 7.76303 6.8938 7.39171 6.8938 6.93366C6.8938 6.47561 6.64625 6.10429 6.34089 6.10429C6.03552 6.10429 5.78797 6.47561 5.78797 6.93366C5.78797 7.39171 6.03552 7.76303 6.34089 7.76303Z" fill="white"/>
</svg>
