<svg width="32" height="32" viewBox="0 0 32 32" fill="none" xmlns="http://www.w3.org/2000/svg">
<path d="M15.4214 3.68012C15.6773 3.23211 16.3233 3.23211 16.5792 3.68012L18.6844 7.36568C18.8461 7.64863 19.1885 7.77329 19.4942 7.66042L23.4759 6.19032C23.96 6.01162 24.4548 6.42684 24.3629 6.93452L23.6065 11.111C23.5484 11.4317 23.7307 11.7473 24.0374 11.8573L28.0325 13.2906C28.5182 13.4648 28.6303 14.101 28.2336 14.4308L24.9696 17.144C24.719 17.3523 24.6557 17.7112 24.8199 17.9927L26.9591 21.6586C27.2191 22.1042 26.8962 22.6637 26.3802 22.6613L22.1358 22.6417C21.81 22.6402 21.5308 22.8744 21.4757 23.1956L20.7579 27.3789C20.6707 27.8874 20.0637 28.1084 19.67 27.7749L16.4312 25.0316C16.1826 24.821 15.8181 24.821 15.5694 25.0316L12.3306 27.7749C11.937 28.1084 11.3299 27.8874 11.2427 27.3789L10.525 23.1956C10.4699 22.8744 10.1907 22.6402 9.86484 22.6417L5.62043 22.6613C5.10449 22.6637 4.78151 22.1042 5.04155 21.6586L7.18073 17.9927C7.34496 17.7112 7.28168 17.3523 7.03109 17.144L3.76708 14.4308C3.37032 14.101 3.48249 13.4648 3.96812 13.2906L7.96327 11.8573C8.26999 11.7473 8.45222 11.4317 8.39415 11.111L7.6378 6.93452C7.54586 6.42684 8.0407 6.01162 8.5247 6.19032L12.5064 7.66042C12.8121 7.77329 13.1546 7.64864 13.3162 7.36568L15.4214 3.68012Z" fill="#1286F0"/>
<path d="M13.667 16.7778L15.2225 18.3333L19.1114 14.4444" stroke="white" stroke-width="1.16667" stroke-linecap="round" stroke-linejoin="round"/>
</svg>
